<svg xmlns="http://www.w3.org/2000/svg" viewBox="0 0 3741.96 2354.75"><defs><style>.cls-1{isolation:isolate;}.cls-2{fill:#77ccf4;}.cls-3{fill:#add9e0;}.cls-4{fill:#faf5e1;}.cls-5{fill:#fff;}.cls-6{fill:#e38064;}.cls-7{fill:#3c251d;}.cls-8{fill:#e39122;}.cls-9{fill:#ebb241;}.cls-10{fill:#be4444;}.cls-11{fill:#3c6a7c;}.cls-12{fill:#efc266;}.cls-13{fill:#e38569;}.cls-14{fill:#5c7040;}.cls-15{fill:#779158;}.cls-16{fill:#8fa274;}.cls-17{fill:#f5eabc;}.cls-18{fill:#e69654;}.cls-19{mix-blend-mode:multiply;}.cls-20{fill:#f4daaa;}.cls-21{fill:#1a2e3c;}.cls-22{fill:#dc4747;}.cls-23{fill:#e6b390;}.cls-24{fill:#f7e3ca;}.cls-25{fill:#eedcd2;}.cls-26{fill:#e3865f;}</style></defs><title>Asset 2</title><g class="cls-1"><g id="Layer_2" data-name="Layer 2"><g id="Layer_1-2" data-name="Layer 1"><path class="cls-2" d="M287.39,1478.38C13.86,1675.3-5,2056,155.76,2331c172,6.44,3342.88,24.29,3356.38,0,308.16-554.42,353.35-1542.22-157.67-1996.9C3185,183.26,2971.46,87,2750.12,37.15c-299.81-67.47-627.82-48.6-895.26,102.78-316.55,179.19-458.79,525.19-670,802.64-104.05,136.72-224.48,258.51-384.14,327.14-168.62,72.49-358,98.34-510.38,206.54Z"/><path class="cls-2" d="M1201.44,336.88c101.9,88.54,78.44,301.49,18,412.64-117.31,215.73-369.56,437.28-628.64,436-129.34-.66-264.41-96.22-241.88-238,14-88.26,75.5-161,139-223.84C600.83,611.76,727.58,515.35,856.62,423.05,952.42,354.54,1085.51,236.15,1201.44,336.88Z"/><path class="cls-3" d="M2276.31,608.93H1183.73c-17.45,0-33.85,11-38.25,27.9a38,38,0,0,0,36.59,47.85h0a46.3,46.3,0,0,1,46.29,46.3v262.9A252.89,252.89,0,0,1,1166,1160.17h0a566.37,566.37,0,0,0-139.65,372.41h0a1231,1231,0,0,0,74.12,420.72l110.22,303.11a73.83,73.83,0,0,0,69.38,48.6h713.05a73.83,73.83,0,0,0,69.39-48.6l110.22-303.11a1231,1231,0,0,0,74.12-420.72h0a566.37,566.37,0,0,0-139.65-372.41h0a252.89,252.89,0,0,1-62.36-166.29V914.5c0-126.92,102.89-229.82,229.81-229.82h0c17.45,0,33.85-11,38.24-27.89A38,38,0,0,0,2276.31,608.93Z"/><path class="cls-3" d="M1103.08,1828.35c-171.73-32.19-346-287.91-375.76-478.18-20.35-130,20.4-229.68,114.75-280.72,219.1-118.52,388,12.29,446.79,98l-104.16,71.37,52.08-35.69-51.85,36c-11.06-15.68-112.83-150.59-282.79-58.64-45,24.35-61.87,74.87-50.08,150.14,26.26,167.82,179.26,355.81,274.3,373.62Z"/><path class="cls-4" d="M1920.3,1245.53c-198.31,17-382.13,122.18-580.95,131.21a612.64,612.64,0,0,1-234-35.64,556.25,556.25,0,0,0-36.91,199.09A1210,1210,0,0,0,1137.36,1943l103.31,292.53a66.3,66.3,0,0,0,62.51,44.22h665.48a66.28,66.28,0,0,0,62.5-44.22L2134.48,1943a1210,1210,0,0,0,68.93-402.82A554.44,554.44,0,0,0,2128.19,1261,665,665,0,0,0,1920.3,1245.53Z"/><path class="cls-5" d="M1370.65,1064.71A35.76,35.76,0,0,1,1334.9,1029V722.36a35.75,35.75,0,0,1,71.5,0V1029A35.76,35.76,0,0,1,1370.65,1064.71Z"/><path class="cls-6" d="M3017.54,1190.47c-30.89-57.73-62.83-117.42-90.9-177.91l287.92-117.21c24,51.72,71.87,79.19,101.84,135.19,61.77,115.43,127.9,239.37,158.86,366.18h-356C3092.43,1330.62,3053.92,1258.44,3017.54,1190.47Z"/><path class="cls-6" d="M2308.33,1402.61s-150.65,193-287.17,193c-211.85,0-362.84-599-362.84-599l209.51-96.7,188.63,300.29,35.36-43.22,249,21.53L2363.59,1332Z"/><path class="cls-7" d="M2133.17,1215.64s52.48,52.48,144.8,67.06,26.24-64.14,26.24-64.14Z"/><path class="cls-7" d="M3159.84,1273.14C3033,1260,3346.45,1131.58,3346.45,1131.58l25.81.78c16.58,26.89,29.31,66.92,44.44,95.77C3393.63,1241.13,3270.69,1284.61,3159.84,1273.14Z"/><polygon class="cls-7" points="2484.12 693.73 2496.76 699.81 2496.61 708.31 2468.4 710.46 2467.46 703.53 2484.12 693.73"/><polygon class="cls-7" points="2942.56 701.64 2950.92 709.23 2952.84 720.96 2942.03 731.04 2918.12 720.68 2912.95 712.44 2926.36 696.39 2942.56 701.64"/><path class="cls-5" d="M2779.06,694.66s264.42,36.13,337.19,87.06c53.95,37.75-10.5,312.89-53.57,466.84-17.09,61.08-35.09,151.91-30.15,215.14l18.75,239.88-819.12-4.37S2272,1304.79,2270,1258c0,0-141.52-11.07-231.86-109.09,0,0,69.65-89.44,116.65-180.7s75.91-199.88,201.36-240.12,269.62-19.2,269.62-19.2Z"/><ellipse class="cls-8" cx="2696.71" cy="350.73" rx="69.82" ry="367.27" transform="translate(1799.99 2918.05) rotate(-78.16)"/><path class="cls-9" d="M2679.49,432.87c-129.11-27.06-369.67-95.44-356-160.43,5.38-25.65,42.39-37.57,116.46-37.57,72,0,171.85,12.28,274,33.71C2843.05,295.64,3083.61,364,3070,429c-5.37,25.63-42.38,37.57-116.46,37.57h0C2881.56,466.58,2781.67,454.31,2679.49,432.87ZM2351.1,278.18c-.56,19.75,113.74,80.82,334.18,127.05,100.38,21,198.14,33.1,268.24,33.1,79.07,0,88.78-15,88.81-15.06.55-19.75-113.74-80.82-334.18-127-100.37-21.05-198.14-33.1-268.25-33.1C2360.83,263.12,2351.12,278.15,2351.1,278.18Z"/><path class="cls-10" d="M2578,468s-33.64-44.38-67.59-36.85-47.23,77-14.05,95.07,78.56-4,78.56-4Z"/><path class="cls-7" d="M2508.44,511.94a1.44,1.44,0,0,0,.85-2.67c-.8-.48-19.47-11.94-10.42-34.71,3.8-9.54,8.32-15.07,14.24-17.41,7.49-3,17.74-.92,34.27,6.84a1.44,1.44,0,0,0,1.22-2.61c-17.55-8.23-28.14-10.23-36.55-6.91-6.71,2.65-11.74,8.7-15.85,19-10,25.09,11.41,38.12,11.63,38.24A1.38,1.38,0,0,0,2508.44,511.94Z"/><path class="cls-7" d="M2549.92,269.48C2530,293.54,2530,350,2537.47,400.6s23.6-94.31,23.6-94.31l37.73-38.65Z"/><path class="cls-6" d="M2585.72,606.48l-13.64,90s71.71,49.36,211.66,15.7l19.72-181.83-121.24,72.36Z"/><path class="cls-7" d="M2580.87,638.45l4.85-32,96.5-3.79,40.5-24.17,24.2,1.14C2695.75,647,2603.87,641.11,2580.87,638.45Z"/><path class="cls-6" d="M2547.92,294.33c-11.7,26-3.46,67.07-15.55,121.89s-44.4,169.59,60.81,201.12,204.18-51,204.18-51l57.79-171.47C2882,315.27,2835.32,246,2754.78,222q-2.78-.84-5.66-1.59C2590.85,178.8,2547.92,294.33,2547.92,294.33Z"/><path class="cls-7" d="M2853.36,468l39.26-129.6L2804.9,304.7s.09,46.82-4.41,102.9-15.9,78.25-15.9,78.25Z"/><path class="cls-6" d="M2798.71,485.7s40.28-38.46,72.6-25.6,34.34,83.56-1.3,96.09-76.92-16.43-76.92-16.43Z"/><path class="cls-7" d="M2618.83,489.54a1.92,1.92,0,0,0,1.34-3.42c-7.24-5.72-14-18.92-12.84-33.1.64-7.92,4.88-12.43,11.29-19.27a143.43,143.43,0,0,0,15.58-19,1.92,1.92,0,0,0-3.17-2.15,141.11,141.11,0,0,1-15.21,18.52c-6.72,7.15-11.57,12.32-12.31,21.58-1.3,16.25,6.49,30.27,14.29,36.42A2,2,0,0,0,2618.83,489.54Z"/><path class="cls-7" d="M2694.47,440.05c.73-9.1,4.32-16.24,8-15.95s6.09,7.92,5.36,17-4.32,16.24-8,15.95S2693.74,449.16,2694.47,440.05Z"/><path class="cls-7" d="M2569.16,425.19c.73-9.11,4.32-16.25,8-16s6.1,7.92,5.37,17-4.32,16.25-8,15.95S2568.43,434.29,2569.16,425.19Z"/><path class="cls-7" d="M2860.39,540.19a1.29,1.29,0,0,0,.64-.1c.24-.09,23.43-9.54,17.58-35.9-2.41-10.85-6.42-17.62-12.61-21.31-7.78-4.62-18.55-4.33-37.19,1a1.44,1.44,0,0,0,.79,2.76c17.56-5,28-5.4,34.93-1.29,5.46,3.26,9,9.44,11.27,19.46,5.31,23.93-15,32.26-15.82,32.61a1.44,1.44,0,0,0,.41,2.77Z"/><path class="cls-7" d="M2680,391.12c.11,3.25,3.24,5.46,6.09,7A128.62,128.62,0,0,0,2733.2,413c2.92.33,6,.55,8.74-.38a11.36,11.36,0,0,0,7.41-11.88c-.54-4.1-3.39-7.62-6.83-9.92s-7.45-3.57-11.41-4.79c-14.75-4.51-31.16-8.54-45.15-2C2683,385.39,2679.86,387.83,2680,391.12Z"/><path class="cls-7" d="M2557.44,385.74c9.43,1.9,22.43-.94,29.35.12,6.1.93,18.09,5.63,20.28-3.32.12-6.07-4.39-11.28-9.55-13.91-4.12-2.1-8.74-3-13.28-3.79-10.3-1.86-26.55-5.19-35,3.24a9.06,9.06,0,0,0-2.73,7.89C2547.7,381.94,2552,384.64,2557.44,385.74Z"/><path class="cls-7" d="M2705.73,469.67c.9.07,1.84.12,2.81.13a1.44,1.44,0,0,0,0-2.88c-13-.18-19-6.82-19-6.88a1.44,1.44,0,1,0-2.18,1.87C2687.62,462.2,2693.27,468.67,2705.73,469.67Z"/><path class="cls-7" d="M2567.78,448.4c11.85,1,17.76-3,18-3.21a1.44,1.44,0,0,0-1.64-2.37c-.08.06-5.44,3.57-16.14,2.71a1.44,1.44,0,0,0-.23,2.87Z"/><path class="cls-7" d="M2734.08,603.8a1.42,1.42,0,0,0,.75-.14c1.42-.7,35.08-17.35,50.31-31.5a1.44,1.44,0,0,0-2-2.11c-14.92,13.86-49.28,30.86-49.62,31a1.43,1.43,0,0,0,.52,2.72Z"/><path class="cls-7" d="M2610.22,604.76a1.42,1.42,0,0,0,1.07-.35,1.44,1.44,0,0,0,.13-2c-.57-.64-13.72-15.77-3.44-27.23a1.44,1.44,0,1,0-2.15-1.91c-12,13.36,3.28,30.87,3.43,31A1.46,1.46,0,0,0,2610.22,604.76Z"/><path class="cls-5" d="M2633.45,518.4c20.33-11.7,33-30.23,56.58-13.32s-20.68,56-52.48,51.13-44.83-19.41-40.88-31.57S2625.39,523,2633.45,518.4Z"/><path class="cls-7" d="M2705.67,333.59c20.16,0,40.13-6.68,60.92-13.64,7.39-2.5,15-5.05,22.88-7.4l-.9-1.32c-7.9,2.35-15.55,4.91-23,7.4-30.21,10.09-56.29,18.8-84.27,9.72a156.66,156.66,0,0,1-30.26-13.59c-10.93-6.13-18.17-10.18-34.13-7.91-9.62,1.32-16.7,4.36-23.51,7.25-11.68,5-21.73,9.29-41.23,3.18-12.3-3.87-21.68-11.81-26.44-22.38-6.45-14.31-3.43-30.87,7.87-43.25l-1.89-.75c-11.59,12.7-14.7,29.72-8.08,44.4,4.93,11,14.74,19.29,27.6,23.3,20.64,6.54,31.65,1.75,43.35-3.24,6.66-2.86,13.54-5.82,22.75-7.08,14.94-2.09,21.52,1.58,32.3,7.6a158,158,0,0,0,30.72,13.78A80.56,80.56,0,0,0,2705.67,333.59Z"/><path class="cls-7" d="M2770.86,302.77s-43.55,27.07-84.74,9.41-61.79-30-90-23.54-73.56,5.89-65.32-27.07l73,2.36,103.57,20.59Z"/><path class="cls-8" d="M2535.47,247.45s43-100.63,78.27-105.92,200.08-13.83,294.82,87.38L2896.2,333.07Z"/><path class="cls-9" d="M2439.9,234.87c72,0,171.85,12.28,274,33.71C2843.05,295.64,3083.61,364,3070,429c-5.33,25.44-41.92,37.36-114.89,37.53a125.87,125.87,0,0,0-13.47-28.45c4,.07,8.12.24,11.9.24,79.07,0,88.78-15,88.81-15.06.55-19.75-113.74-80.82-334.18-127-100.37-21.05-198.14-33.1-268.25-33.1-79.07,0-88.78,15-88.8,15.06-.3,10.79,33.9,33.92,100.69,60.21a149.72,149.72,0,0,0-22.85,20.81c-64.84-26.81-111.71-57.12-105.5-86.76C2328.82,246.79,2365.83,234.87,2439.9,234.87Z"/><path class="cls-7" d="M2823.82,270.43h-.11a1.8,1.8,0,0,1-1.68-1.91l4.42-61.79a1.86,1.86,0,0,1,1.91-1.68A1.8,1.8,0,0,1,2830,207l-4.43,61.79A1.79,1.79,0,0,1,2823.82,270.43Z"/><path class="cls-7" d="M2844.56,284.56h-.12a1.81,1.81,0,0,1-1.67-1.91l4.42-72.38a1.8,1.8,0,1,1,3.59.23l-4.43,72.38A1.82,1.82,0,0,1,2844.56,284.56Z"/><path class="cls-7" d="M2866.18,234.68a2,2,0,0,1-.51-.07L2792,213a1.82,1.82,0,0,1-1.21-2.24,1.85,1.85,0,0,1,2.24-1.21l73.69,21.63a1.79,1.79,0,0,1-.52,3.51Z"/><path class="cls-7" d="M2860.46,257.63a1.61,1.61,0,0,1-.49-.07L2793.33,239a1.79,1.79,0,1,1,1-3.44L2861,254.12a1.8,1.8,0,0,1,1.23,2.21A1.76,1.76,0,0,1,2860.46,257.63Z"/><path class="cls-6" d="M2783.74,712.16s-116.18,93.85-184.63,58.6S2537.89,703,2537.89,703l34.19-6.49Z"/><path class="cls-11" d="M2949.68,719.13s-2.84-19.18-14.57-17.27S2804,975.44,2801,1142.27l-70.56-2.85s28.87-297.25,147.68-459.85c0,0,13.91-5.06,33.38,5.39s40.18,11.89,42.17,19.36,1.29,17,1.29,17Z"/><path class="cls-11" d="M2494,705.07s-4.77-9.89-15.84-5.6S2391.92,981,2410.24,1142.9l-65.8-5.45s-7.77-255.59,59.19-430.83c0,0,22.69-22.47,43.88-16.56s44.91-6.1,48.4.63a35.72,35.72,0,0,1,3.69,13.69Z"/><path class="cls-11" d="M2882.86,1691.44l-71.42-515.75s-375.18,17.29-496.58-9l-55.38,513.46Z"/><path class="cls-7" d="M2770.36,1220.83l-19.27-.35a4.25,4.25,0,0,1-4.05-3.24l-8.53-34.73-21.08-.38a4.24,4.24,0,0,1-4.17-4.32l.61-34a4.25,4.25,0,0,1,4.33-4.17l87.13,1.58a4.26,4.26,0,0,1,4.18,4.33l-.62,34a4.24,4.24,0,0,1-4.33,4.17l-20.92-.38-9.1,34.33A4.25,4.25,0,0,1,2770.36,1220.83Zm-15.85-8.79,12.67.23,9.1-34.33a4.26,4.26,0,0,1,4.19-3.17l20,.37.46-25.51-78.63-1.42-.47,25.5,20.1.36a4.25,4.25,0,0,1,4.05,3.24Z"/><path class="cls-7" d="M2383.58,1213.81l-19.27-.35a4.24,4.24,0,0,1-4-3.24l-8.53-34.72-21.08-.38a4.25,4.25,0,0,1-4.17-4.33l.61-34a4.26,4.26,0,0,1,4.33-4.18l87.13,1.58a4.26,4.26,0,0,1,4.18,4.33l-.62,34a4.26,4.26,0,0,1-4.33,4.18l-20.92-.38-9.1,34.33A4.24,4.24,0,0,1,2383.58,1213.81Zm-15.85-8.79,12.67.23,9.1-34.33a4.25,4.25,0,0,1,4.19-3.16l20,.36.47-25.5-78.63-1.43-.47,25.5,20.1.37a4.24,4.24,0,0,1,4,3.23Z"/><path class="cls-7" d="M2270,1259.56a1.56,1.56,0,0,0,1.59-1.43c7-77.12-5.54-157-5.66-157.81a1.51,1.51,0,0,0-1.8-1.3,1.57,1.57,0,0,0-1.31,1.8c.13.79,12.62,80.31,5.64,157a1.56,1.56,0,0,0,1.42,1.71Z"/><path class="cls-7" d="M2271.62,1167.47a1.55,1.55,0,0,0,.89-.25,1.58,1.58,0,0,0,.45-2.18L2244,1120.57a1.58,1.58,0,0,0-2.64,1.73l29,44.46A1.58,1.58,0,0,0,2271.62,1167.47Z"/><path class="cls-7" d="M2609.1,808.41c57.3,1,116-27.93,116.71-28.29a1.59,1.59,0,0,0,.7-2.11,1.61,1.61,0,0,0-2.12-.71c-.89.45-90.31,44.54-155,21.19a1.55,1.55,0,0,0-2,.94,1.58,1.58,0,0,0,.94,2C2581.23,806.12,2595.12,808.16,2609.1,808.41Z"/><path class="cls-12" d="M2396.82,1179.51a23.38,23.38,0,1,0-23.8,23A23.38,23.38,0,0,0,2396.82,1179.51Z"/><path class="cls-12" d="M2785.1,1182.3a23.38,23.38,0,1,0-23.8,23A23.39,23.39,0,0,0,2785.1,1182.3Z"/><path class="cls-7" d="M2546.28,1618.77l-201.1-85.85a1.56,1.56,0,0,1-1-1.5l7.82-274.8a1.58,1.58,0,0,1,1.57-1.53l413.85-1h0a1.58,1.58,0,0,1,1.55,1.57l1.81,290.56a1.57,1.57,0,0,1-1.09,1.51l-222.38,71.08a1.51,1.51,0,0,1-1.1,0Zm219.62-361.52-410.76,1-7.74,272.2L2547,1615.65l220.72-70.56Z"/><path class="cls-7" d="M2350.72,1279.1h0l415.6.09a1.57,1.57,0,0,0,0-3.14h0l-415.61-.1a1.58,1.58,0,0,0,0,3.15Z"/><path class="cls-7" d="M2267.56,883.24h.1a1.6,1.6,0,0,0,1.5-1.7c-1.75-21.36-19.62-56.85-20.38-58.35a1.58,1.58,0,0,0-2.11-.69,1.56,1.56,0,0,0-.69,2.11c.18.36,18.34,36.44,20,57.18A1.58,1.58,0,0,0,2267.56,883.24Z"/><path class="cls-11" d="M2209.59,1902.29c8.32-111.56,19.58-212,19.58-212l14.21-2.89s14.93-42.21,27.11-106.5l138.07,50.23,460.92,33.54,192.85,7.69s16.1,268.82,35.25,369.86c4.68,24.68,22.38,134.78,46.38,286.61-34.39.17-69.7-5.69-103.25-7.19-20.76-.93-38.51,2.86-53.49,9.88-130.37-8.54-260.36-23.41-391.41-18.87-137.33,4.76-274.85-2.69-412.1-.63C2197,2096.7,2207.21,1934.27,2209.59,1902.29Z"/><path class="cls-7" d="M2243.36,1688.92h.09c279.64-11,633-22.42,636.56-22.54a1.58,1.58,0,0,0,1.52-1.62,1.77,1.77,0,0,0-1.63-1.53c-3.53.12-356.92,11.55-636.58,22.55a1.57,1.57,0,0,0,0,3.14Z"/><path class="cls-7" d="M2223.47,1773h.23c134-17.26,831.17-17.3,838.2-17.3a1.57,1.57,0,0,0,0-3.14h0c-7,0-704.44,0-838.61,17.32a1.57,1.57,0,0,0,.17,3.13Z"/><path class="cls-7" d="M2627.5,2282.76a1.65,1.65,0,0,0,.94-.29,1.58,1.58,0,0,0,.37-2.2l-85.64-120.74-15.75-402.61a1.58,1.58,0,0,0-1.63-1.51,1.56,1.56,0,0,0-1.51,1.64L2540,2160.11a1.53,1.53,0,0,0,.29.85l85.91,121.14A1.59,1.59,0,0,0,2627.5,2282.76Z"/><path class="cls-7" d="M2630.81,2312.27c-8.9-197.63-29.64-556.17-29.87-560.1a1.57,1.57,0,0,1,1.48-1.66,1.48,1.48,0,0,1,1.66,1.48c.23,3.92,21,362.61,29.88,560.25Z"/><path class="cls-7" d="M3082.08,2324.88l-91-568.62a1.57,1.57,0,0,1,3.1-.5l91.12,569.43Z"/><path class="cls-7" d="M2203.88,2043.79a1.6,1.6,0,0,0,1.07-.4c84.26-75.11,99.8-275.72,100-277.74a1.59,1.59,0,0,0-1.46-1.69h-.08a1.57,1.57,0,0,0-1.6,1.46c-.15,2-15.59,201.36-98.9,275.62a1.58,1.58,0,0,0,1,2.75Z"/><path class="cls-7" d="M3035,2022.68a1.57,1.57,0,0,0,.3-3.12c-2-.36-199.18-37.32-212.2-198.6a1.51,1.51,0,0,0-1.69-1.45,1.59,1.59,0,0,0-1.45,1.7c13.22,163.72,212.78,201.08,214.79,201.45Z"/><path class="cls-5" d="M3116.25,781.72c100.16,47.12,304.41,397.06,304.41,397.06s-76.16,66.43-194.3,85.71-165,43.41-165,43.41-76.89-90.63-76.69-101.34S3037,882.69,3037,882.69Z"/><path class="cls-7" d="M3049.16,1293.16a1.36,1.36,0,0,0,.58-.11,1.54,1.54,0,0,0,.89-2c-45.56-119.3-64.74-141.77-65.52-142.67a1.49,1.49,0,0,0-2.19-.13,1.58,1.58,0,0,0-.16,2.22c.2.22,19.74,23.34,65,141.69A1.55,1.55,0,0,0,3049.16,1293.16Z"/><path class="cls-7" d="M3026.88,1241a1.54,1.54,0,0,0,1.51-1.06,1.57,1.57,0,0,0-1-2c-22.35-7.36-56.86-50.1-57.22-50.53a1.64,1.64,0,0,0-2.19-.22,1.57,1.57,0,0,0-.22,2.19c1.43,1.79,35.43,43.88,58.67,51.53A2.32,2.32,0,0,0,3026.88,1241Z"/><path class="cls-13" d="M1883.93,1515.1c136.67-85.58,165.62-75.72,231.38-37.17,27.73,16.25,31.61,46.49,26.62,76.68-38.66,23.87-80.3,41-120.77,41C1975.92,1595.62,1929.3,1564.22,1883.93,1515.1Z"/><path class="cls-7" d="M2023.72,1561.77a37.06,37.06,0,0,0,7.43-.71c34.82-6.6,40.16-38.55,40.22-38.87a1.58,1.58,0,0,0-3.12-.48c-.19,1.22-5.09,30.08-37.68,36.25-7.89,1.51-13.18.49-15.78-3-6.35-8.43,3.82-28.83,3.93-29a1.57,1.57,0,0,0-2.81-1.42c-.46.91-11.15,22.36-3.63,32.35C2014.65,1560,2018.49,1561.68,2023.72,1561.77Z"/><path class="cls-7" d="M2173,1382.62a1.79,1.79,0,0,1-1.73-1.32c-19.11-71.15-115.16-178.85-116.12-179.94a1.78,1.78,0,0,1,2.66-2.37c1,1.07,97.59,109.41,116.91,181.38a1.78,1.78,0,0,1-1.26,2.18A1.47,1.47,0,0,1,2173,1382.62Z"/><path class="cls-6" d="M2816.19,1395.28c-43.24-44.18-66.58-70.25-75.39-86.9s-93.44-90.78-124.25-128c-28.52-34.41-71.47-30.52-63.81,24.73,7.16,51.6,100.42,109.4,84.89,108.58-47.92-2.53-65.44-2.94-65.44-2.94l-3.52,208.75,26.76,40.29,102,3Z"/><path class="cls-6" d="M2444.37,1582.74a32.39,32.39,0,0,0,15,3.52l197.22-1a32.72,32.72,0,1,0-.33-65.43l-197.22.94a32.72,32.72,0,0,0-14.62,61.92Z"/><path class="cls-6" d="M2354,1371.29a43.72,43.72,0,0,0,6.92,1.4L2558,1396.08c23.95,2.83,115.34,2.28,118.18-21.65s34.55-67.7-107.87-65L2371.17,1286a43.65,43.65,0,0,0-17.22,85.29Z"/><path class="cls-6" d="M2848.71,1422.45s-78.75-67.92-110.41-67.29c-89.86,1.79-127.14,15.82-127.14,15.82s-100,184.15-56.95,199.64c40.5,14.58,268.14,38.29,268.14,38.29Z"/><path class="cls-7" d="M2592,1366.48a1.73,1.73,0,0,0,.26,1.12,1.78,1.78,0,0,0,2.46.59l22.48-13.94a1.79,1.79,0,0,0-1.89-3l-22.47,13.93A1.78,1.78,0,0,0,2592,1366.48Z"/><path class="cls-7" d="M2616.37,1369a1.77,1.77,0,0,1-.49,1,1.79,1.79,0,0,1-2.53.07l-19.18-18.21a1.79,1.79,0,0,1,2.47-2.6l19.18,18.2A1.79,1.79,0,0,1,2616.37,1369Z"/><path class="cls-7" d="M2343.8,1355a1.74,1.74,0,0,0,1.61-.34,1.79,1.79,0,0,0,.22-2.47c-12.39-14.85.66-33,3.73-36.92l41.19,5.69c6.56,11.76-2.4,38.85-2.5,39.13a1.74,1.74,0,0,0,1.09,2.22l.08,0a1.74,1.74,0,0,0,2.14-1.12c.42-1.21,9.93-30.09,1.72-42.82a1.91,1.91,0,0,0-1.23-.8l-43-5.93a1.7,1.7,0,0,0-1.55.62c-.19.21-19.93,23.5-4.37,42.15A1.72,1.72,0,0,0,2343.8,1355Z"/><path class="cls-6" d="M2586.31,1467.89c-1.15,0-2.29,0-3.45-.11l-147.54-10c-25.84-1.74-45.26-22.53-43.38-46.43s24.43-41.61,50.18-40.13l147.54,10c25.84,1.73,45.26,22.53,43.38,46.43C2631.24,1450.47,2610.66,1467.89,2586.31,1467.89Z"/><path class="cls-6" d="M2586.31,1535.31c-1.15,0-2.29,0-3.45-.12l-147.54-9.94c-25.84-1.74-45.26-22.53-43.38-46.43s24.43-41.61,50.18-40.13l147.54,9.94c25.84,1.74,45.26,22.53,43.38,46.43C2631.24,1517.89,2610.66,1535.31,2586.31,1535.31Z"/><path class="cls-7" d="M2531.54,1390.54c-3,0-115.54-9.38-120.31-9.78a1.8,1.8,0,1,1,.28-3.58c40.43,3.37,117.51,9.75,120,9.77a1.84,1.84,0,0,1,1.79,1.8A1.81,1.81,0,0,1,2531.54,1390.54Z"/><path class="cls-7" d="M2493.43,1458h-.13l-85-6.85a1.8,1.8,0,0,1,.28-3.58l85,6.84a1.8,1.8,0,0,1-.14,3.59Z"/><path class="cls-7" d="M2503.21,1528.3h-61.56a1.79,1.79,0,0,1,0-3.58h61.56a1.79,1.79,0,0,1,0,3.58Z"/><path class="cls-7" d="M2589,1433.9a1.74,1.74,0,0,0,.27,1.12,1.78,1.78,0,0,0,2.46.59l22.47-13.94a1.79,1.79,0,0,0-1.88-3.05l-22.47,13.93A1.82,1.82,0,0,0,2589,1433.9Z"/><path class="cls-7" d="M2613.44,1436.4a1.71,1.71,0,0,1-.49,1,1.79,1.79,0,0,1-2.53.08l-19.18-18.21a1.78,1.78,0,0,1-.06-2.53,1.8,1.8,0,0,1,2.53-.08l19.18,18.21A1.79,1.79,0,0,1,2613.44,1436.4Z"/><path class="cls-7" d="M2584.16,1496.43a1.84,1.84,0,0,0,.26,1.13,1.8,1.8,0,0,0,2.47.58l22.47-13.94a1.79,1.79,0,1,0-1.89-3L2585,1495.09A1.75,1.75,0,0,0,2584.16,1496.43Z"/><path class="cls-7" d="M2608.56,1498.93a1.83,1.83,0,0,1-.49,1,1.79,1.79,0,0,1-2.53.07l-19.18-18.2a1.79,1.79,0,0,1,2.46-2.61l19.18,18.2A1.8,1.8,0,0,1,2608.56,1498.93Z"/><path class="cls-6" d="M2737.91,1324.34c129.57,102.64,320.1,148.18,411.33,183.6-3.64-34.8-12.55-68.41-29.95-111.22h356c25.17,103.08,27.16,208.06-15.83,312-31.53,76.22-92.71,129.54-172.25,150.17-22.91,6-47,8.69-72.19,8.69-211.61,0-431.9-220-590.07-345.46Z"/><path class="cls-7" d="M3344,1590.35a1.94,1.94,0,0,1-.86-.21c-1.12-.62-113.7-61.3-194.33-80.46a1.79,1.79,0,0,1,.84-3.49c81.07,19.27,194.07,80.18,195.21,80.79a1.82,1.82,0,0,1,.72,2.44A1.84,1.84,0,0,1,3344,1590.35Z"/><path class="cls-10" d="M3191.29,1866c-18.37-61.24,140.6-199,282.5-197.56-4.09,13.41-8.82,26.81-14.36,40.19-31.53,76.22-92.71,129.54-172.25,150.17-22.91,6-47,8.69-72.19,8.69C3207.11,1867.53,3199.2,1866.63,3191.29,1866Z"/><path class="cls-6" d="M1882.49,926.25s-19.1-122.17-42.27-153.55-131-55.67-131-55.67S1527.7,807.68,1542,858.73s159.48,212.55,159.48,212.55Z"/><path class="cls-6" d="M1849.46,876.35a35.93,35.93,0,0,0,16.52-35.5c-12.46-87.83-22.47-196-16.91-217.71a35.91,35.91,0,1,0-69.57-17.82c-11.61,45.4,8.84,199.48,15.38,245.61a35.93,35.93,0,0,0,54.58,25.42Z"/><path class="cls-7" d="M1739.79,952a2.7,2.7,0,0,0,.36-.26,3,3,0,0,0,.32-4.22c-76.74-90-3.23-167.45-.06-170.71a3,3,0,0,0-4.29-4.18c-.81.84-80.54,84.6-.19,178.78A3,3,0,0,0,1739.79,952Z"/><path class="cls-5" d="M1829.44,381.05l315.95,5.09c36.09.58,69-17.06,83.64-44.74,17.83-33.76,29.66-74.63-14.13-79-75.85-7.63-106.19,40.71-106.19,40.71s48.54-137.38-63.71-139.92-185.07,111.93-185.07,111.93-3-40.7-66.75-22.89a64.18,64.18,0,0,0-27.06,15.6C1720.43,311.12,1760.48,379.94,1829.44,381.05Z"/><path class="cls-5" d="M657.62,873.61l316,5.09c36.09.58,69-17.06,83.64-44.74,17.82-33.76,29.65-74.63-14.14-79-75.85-7.63-106.19,40.71-106.19,40.71s48.55-137.38-63.71-139.92S688.11,767.64,688.11,767.64s-3-40.7-66.74-22.89a64.21,64.21,0,0,0-27.07,15.6C548.61,803.68,588.66,872.5,657.62,873.61Z"/><path class="cls-5" d="M3099.47,693.43,3381,698c32.15.51,61.5-15.21,74.52-39.86,15.88-30.08,26.42-66.5-12.59-70.43-67.58-6.8-94.61,36.27-94.61,36.27s43.25-122.4-56.77-124.66S3126.64,599,3126.64,599s-2.7-36.27-59.47-20.4a57,57,0,0,0-24.11,13.9C3002.35,631.12,3038,692.44,3099.47,693.43Z"/><path class="cls-9" d="M3217.19,270.87a3.64,3.64,0,0,1-1.56-.37L3182.31,253,3149,270.5a3.36,3.36,0,0,1-3.5-.26,3.3,3.3,0,0,1-1.32-3.24l6.35-37.12-27-26.29a3.29,3.29,0,0,1,1.84-5.65l37.26-5.42,16.67-33.77a3.45,3.45,0,0,1,6,0L3202,192.52l37.27,5.42a3.3,3.3,0,0,1,1.84,5.65l-27,26.29,6.35,37.12a3.28,3.28,0,0,1-1.32,3.24A3.17,3.17,0,0,1,3217.19,270.87Zm-34.88-25a3.44,3.44,0,0,1,1.55.38l28.92,15.21-5.52-32.21a3.27,3.27,0,0,1,1-2.93l23.4-22.82-32.34-4.7a3.31,3.31,0,0,1-2.51-1.81l-14.46-29.31L3167.85,197a3.33,3.33,0,0,1-2.52,1.81l-32.34,4.7,23.4,22.82a3.24,3.24,0,0,1,1,2.93l-5.52,32.21,28.92-15.21A3.52,3.52,0,0,1,3182.31,245.9Z"/><path class="cls-9" d="M579.94,1160.73a3.47,3.47,0,0,1-1.55-.38l-33.33-17.53-33.32,17.53a3.36,3.36,0,0,1-3.5-.26,3.28,3.28,0,0,1-1.32-3.24l6.35-37.12-26.95-26.29a3.29,3.29,0,0,1,1.84-5.65l37.26-5.42,16.66-33.76a3.45,3.45,0,0,1,6,0l16.67,33.76,37.26,5.42a3.29,3.29,0,0,1,1.84,5.65l-26.95,26.29,6.35,37.12a3.28,3.28,0,0,1-1.32,3.24A3.21,3.21,0,0,1,579.94,1160.73Zm-34.88-25a3.61,3.61,0,0,1,1.56.37l28.92,15.21L570,1119.13a3.28,3.28,0,0,1,1-2.93l23.4-22.81L562,1088.68a3.34,3.34,0,0,1-2.52-1.81l-14.46-29.31-14.46,29.31a3.31,3.31,0,0,1-2.51,1.81l-32.34,4.71,23.4,22.81a3.28,3.28,0,0,1,1,2.93l-5.52,32.21,28.92-15.21A3.6,3.6,0,0,1,545.06,1135.76Z"/><path class="cls-9" d="M1564.54,296.44h-97.48a3.38,3.38,0,0,1-3.39-3.39V195.58a3.39,3.39,0,0,1,3.39-3.4h97.48a3.4,3.4,0,0,1,3.39,3.4v97.47A3.39,3.39,0,0,1,1564.54,296.44Zm-94.09-6.78h90.69V199h-90.69Z"/><path class="cls-9" d="M1508.72,274.78a3.38,3.38,0,0,1-2.47-1.06l-26.66-28.33a3.39,3.39,0,1,1,4.94-4.65l23.9,25.4,43.4-57.6a3.39,3.39,0,1,1,5.41,4.07l-45.81,60.82a3.43,3.43,0,0,1-2.53,1.35Z"/><path class="cls-14" d="M3469.08,2320.26l3.23-.94c-.09-.43-7.68-43.48,13.22-96.43,5.58-14.12,18.64-37,33.76-63.6,43.32-76.06,102.66-180.22,61.37-206.47-38.47-24.47-20.63-58.1,6.39-109,9.91-18.67,21.15-39.82,30.74-63.14,22.37-54.4,23-102.38,1.61-122.23-11-10.17-33-18-76,2.3-91.4,43.21-114.2,233.48-115.13,241.55h3.25c.22-2,23.5-196.34,113-238.66,32.7-15.44,57.78-16.37,72.52-2.7,20.51,19,19.62,65.65-2.24,118.82-9.53,23.15-20.71,44.22-30.58,62.82-26.85,50.58-46.25,87.12-5.51,113,38.94,24.77-19.51,127.41-62.2,202.34-15.19,26.68-28.31,49.71-34,64.06C3461.24,2275.91,3469,2319.82,3469.08,2320.26Z"/><path class="cls-14" d="M3476.22,2068.87l3.25,0c.2-2,20.84-196.07,81.82-336.95l-3-1C3497.12,1872.3,3476.42,2066.93,3476.22,2068.87Z"/><polygon class="cls-14" points="3514.47 1855.34 3568.56 1814.87 3566.79 1812.36 3516.78 1849.77 3500.95 1767.71 3497.74 1768.67 3514.47 1855.34"/><path class="cls-14" d="M3492.54,2104.2c10.5-17.06,72.3-107.17,72.93-108.07l-2.63-1.62c-.63.91-62.49,91.09-73,108.24Z"/><path class="cls-14" d="M3508.71,2320.7c23.52-29.72,52.28-55.89,80.12-81.2,40.94-37.24,79.61-72.41,96.06-113.95,6.85-17.29,7.85-27.72,3.17-32.85-6-6.54-19.32-2.55-33.45,1.7-13.34,4-27.14,8.17-31.51,1.58-4.57-6.88,11.76-26.66,29-47.6,28-34,62.84-76.18,44.28-101.69-30.45-41.9-108.36,16.5-109.15,17.1l1.8,2.48c.73-.56,76-56.85,104.63-17.5,17.17,23.6-16.75,64.7-44,97.73-19.69,23.85-35.23,42.69-29.39,51.49,5.53,8.28,20.44,3.85,34.89-.5,12.59-3.78,25.6-7.63,30.33-2.46,3.72,4.1,2.49,14.06-3.67,29.64-16.13,40.73-54.49,75.62-95.09,112.56-28,25.41-56.84,51.7-80.54,81.65Z"/><path class="cls-14" d="M3444.27,1795.77h.15a1.84,1.84,0,0,0,1.66-1.76c.15-6.24,3.08-153.53-27.33-207.35a1.54,1.54,0,0,0-2.2-.43,1.73,1.73,0,0,0-.69,2.26c30,53.12,27,204.3,27,205.82A1.4,1.4,0,0,0,3444.27,1795.77Z"/><path class="cls-14" d="M3395.6,1574a18.69,18.69,0,0,1,18.08-16.22A14.18,14.18,0,0,1,3428,1574a18.69,18.69,0,0,1-18.08,16.22A14.18,14.18,0,0,1,3395.6,1574Zm3.24,0a11.35,11.35,0,0,0,11.49,13,15,15,0,0,0,14.47-13,11.35,11.35,0,0,0-11.49-13A15,15,0,0,0,3398.84,1574Z"/><path class="cls-14" d="M3389.55,1626.77a18.72,18.72,0,0,1,18.09-16.23,14.2,14.2,0,0,1,14.36,16.23,18.71,18.71,0,0,1-18.09,16.22A14.19,14.19,0,0,1,3389.55,1626.77Zm3.25,0a11.35,11.35,0,0,0,11.49,13,15,15,0,0,0,14.46-13,11.35,11.35,0,0,0-11.49-13A15,15,0,0,0,3392.8,1626.77Z"/><path class="cls-14" d="M3441.71,1645.83a18.71,18.71,0,0,1,18.09-16.22,14.18,14.18,0,0,1,14.36,16.22,18.69,18.69,0,0,1-18.08,16.22A14.2,14.2,0,0,1,3441.71,1645.83Zm3.25,0a11.35,11.35,0,0,0,11.49,13,15,15,0,0,0,14.47-13,11.35,11.35,0,0,0-11.49-13A15,15,0,0,0,3445,1645.83Z"/><path class="cls-14" d="M3399,1682.33a18.69,18.69,0,0,1,18.08-16.22,14.18,14.18,0,0,1,14.36,16.22,18.7,18.7,0,0,1-18.08,16.23A14.19,14.19,0,0,1,3399,1682.33Zm3.24,0a11.35,11.35,0,0,0,11.49,13,15,15,0,0,0,14.47-13,11.35,11.35,0,0,0-11.49-13A15,15,0,0,0,3402.24,1682.33Z"/><path class="cls-15" d="M3185.64,2316.53c11.47-55.77-26.32-124.22.65-182.53s83.37,2.53,82.74-58.31-115.27-299.16,25.49-354.93,164.84,65.91,168.42,167.32-62.72,370.14-158.43,431Z"/><path class="cls-7" d="M3221.25,2308.19a1.92,1.92,0,0,0,.91-.23c62.5-33.18,126-205,128.17-247.59.9-17.25-5.91-47.75-13.81-83.06-10.83-48.48-23.11-103.43-18.92-139.93a1.58,1.58,0,0,0-1.6-1.8,2.07,2.07,0,0,0-2,1.8c-4.25,37.09,8.1,92.34,19,141.08,7.84,35.07,14.6,65.36,13.73,82.13-2.13,40.85-65.93,212.37-126,244.24a2,2,0,0,0-1,2.45A1.59,1.59,0,0,0,3221.25,2308.19Z"/><path class="cls-7" d="M3324.29,1929.18a2,2,0,0,0,1.14-.38c25.26-18,40-101.71,40.65-105.26a1.57,1.57,0,0,0-1.47-1.9,2,2,0,0,0-2.09,1.69c-.15.85-15.1,85.59-39,102.63a1.89,1.89,0,0,0-.6,2.52A1.57,1.57,0,0,0,3324.29,1929.18Z"/><path class="cls-7" d="M3348.32,2062.27a2,2,0,0,0,1.36-.54,1.81,1.81,0,0,0,.24-2.54c-32.17-34.94-76.33-123-76.78-123.88a1.67,1.67,0,0,0-2.4-.59,1.92,1.92,0,0,0-.87,2.47c.44.89,44.8,89.34,77.26,124.58A1.58,1.58,0,0,0,3348.32,2062.27Z"/><path class="cls-7" d="M3275.27,2246.08a2,2,0,0,0,1.46-.65,1.78,1.78,0,0,0,.06-2.53c-26.69-24.59-25.09-95.67-25.07-96.38a1.59,1.59,0,0,0-1.76-1.64,2.08,2.08,0,0,0-1.86,1.95c-.08,3-1.65,73.29,26.07,98.83A1.59,1.59,0,0,0,3275.27,2246.08Z"/><path class="cls-7" d="M3383.36,2088.36c2.51,44.37-42.86,130.57-42.86,130.57l21.17,25.35,46.09-48.17,15.72-103.94Z"/><path class="cls-14" d="M3312.83,2316.53h74.78s145.48-152.11,132.6-294.08-104.31-173.66-137.64-148.31-42.2,102.67-13.87,176.2,40.41,122.95-1.48,178.73S3312.83,2316.53,3312.83,2316.53Z"/><path class="cls-7" d="M3356.84,2319.6a2,2,0,0,0,1.36-.55c110.12-102.19,89.53-297.57,89.31-299.53a1.59,1.59,0,0,0-2-1.36,2.06,2.06,0,0,0-1.61,2.15c.22,1.94,20.6,195.46-88,296.25a1.82,1.82,0,0,0-.25,2.54A1.62,1.62,0,0,0,3356.84,2319.6Z"/><path class="cls-7" d="M3447.55,2081.29a2,2,0,0,0,1.33-.53,1.82,1.82,0,0,0,.29-2.54c-33-37.24-44.79-133.8-44.91-134.77a1.59,1.59,0,0,0-2-1.35,2.07,2.07,0,0,0-1.59,2.16c.48,4,12.08,98.54,45.68,136.5A1.6,1.6,0,0,0,3447.55,2081.29Z"/><path class="cls-7" d="M3446.84,2120.59a2,2,0,0,0,1.34-.53c19.83-17.79,40.35-56,41.22-57.62a1.66,1.66,0,0,0-.7-2.35,2,2,0,0,0-2.46,1c-.21.39-21,39.18-40.31,56.47a1.82,1.82,0,0,0-.3,2.54A1.6,1.6,0,0,0,3446.84,2120.59Z"/><path class="cls-7" d="M3405.5,2260a2,2,0,0,0,1.94-2.53c-7.3-22.11,5.11-77.1,5.24-77.66a1.57,1.57,0,0,0-1.35-2,2.11,2.11,0,0,0-2.17,1.58c-.53,2.3-12.76,56.53-5.18,79.52A1.57,1.57,0,0,0,3405.5,2260Z"/><polygon class="cls-7" points="3368.45 2317.8 3374.2 2245.55 3302.83 2315.27 3368.45 2317.8"/><path class="cls-16" d="M3200,2316.53h112.82s88.68-65.91,72.14-87.46-34.23,0-38.24-20.28,42.82-119.16-.13-120.43-54.51,0-68,62.12S3243.81,2277.24,3200,2316.53Z"/><path class="cls-7" d="M3265.57,2319.6a2,2,0,0,0,1.12-.36c48.42-33.14,54.63-125.64,54.87-129.56a1.55,1.55,0,0,0-1.7-1.7,2.07,2.07,0,0,0-1.91,1.89c-.06.94-6.33,94.49-53.08,126.49a1.9,1.9,0,0,0-.66,2.51A1.59,1.59,0,0,0,3265.57,2319.6Z"/><path class="cls-7" d="M3298.4,2276.5a2,2,0,0,0,1.93-2.53c-7.32-22.21-4.28-49.7-4.25-50a1.58,1.58,0,0,0-1.59-1.8,2.07,2.07,0,0,0-2,1.8c-.14,1.15-3.16,28.53,4.39,51.43A1.56,1.56,0,0,0,3298.4,2276.5Z"/><path class="cls-7" d="M3282.23,2306.92l.32,0c30-5.12,64.79-37.19,66.25-38.56a1.71,1.71,0,1,0-2.3-2.49c-.35.33-35.37,32.6-64.16,37.51a2.05,2.05,0,0,0-1.7,2.08A1.55,1.55,0,0,0,3282.23,2306.92Z"/><path class="cls-14" d="M658.73,1888.49a2.12,2.12,0,0,1-2.09-2.72c17.15-64.33,104.51-225.24,157.48-245.84a2.16,2.16,0,1,1,1.58,4c-51.92,20.2-137.89,179.26-154.87,242.92A2.18,2.18,0,0,1,658.73,1888.49Z"/><path class="cls-14" d="M752.64,1676.11a8.41,8.41,0,1,1,8.41-8.41A8.41,8.41,0,0,1,752.64,1676.11Zm0-12.48a4.07,4.07,0,1,0,4.07,4.07A4.08,4.08,0,0,0,752.64,1663.63Z"/><path class="cls-14" d="M830.46,1638.69a9.76,9.76,0,1,1,9.76-9.76A9.77,9.77,0,0,1,830.46,1638.69Zm0-15.19a5.43,5.43,0,1,0,5.42,5.43A5.44,5.44,0,0,0,830.46,1623.5Z"/><path class="cls-14" d="M786.53,1643a11.93,11.93,0,1,1,11.93-11.93A12,12,0,0,1,786.53,1643Zm0-19.53a7.6,7.6,0,1,0,7.6,7.6A7.61,7.61,0,0,0,786.53,1623.5Z"/><path class="cls-14" d="M797.65,1689.66a10.58,10.58,0,1,1,10.58-10.57A10.58,10.58,0,0,1,797.65,1689.66Zm0-16.81a6.24,6.24,0,1,0,6.24,6.24A6.25,6.25,0,0,0,797.65,1672.85Z"/><path class="cls-14" d="M774.33,1735.76a14.37,14.37,0,1,1,14.37-14.37A14.38,14.38,0,0,1,774.33,1735.76Zm0-24.41a10,10,0,1,0,10,10A10.05,10.05,0,0,0,774.33,1711.35Z"/><path class="cls-14" d="M719.29,1731.42a13,13,0,1,1,13-13A13,13,0,0,1,719.29,1731.42Zm0-21.69a8.68,8.68,0,1,0,8.68,8.67A8.69,8.69,0,0,0,719.29,1709.73Z"/><path class="cls-14" d="M734.75,1777.51a7.32,7.32,0,1,1,7.32-7.32A7.32,7.32,0,0,1,734.75,1777.51Zm0-10.3a3,3,0,1,0,3,3A3,3,0,0,0,734.75,1767.21Z"/><path class="cls-14" d="M465.67,2263.05l-3.85-.53c.08-.54,6.9-53.6-20.35-113.27-7.26-15.92-23.79-41-42.93-70.09-54.82-83.27-129.9-197.31-82.53-236.42,44.15-36.47,21.45-73.53-12.91-129.62-12.6-20.57-26.89-43.88-39.35-70.1-29.06-61.14-32.16-118.59-7.93-146.36,12.42-14.23,38-27.73,89.71-11.27,109.87,35,146.14,259.09,147.63,268.6l-3.82.6c-.37-2.31-37.4-231.26-145-265.53-39.3-12.49-68.91-9-85.61,10.15-23.24,26.59-19.89,82.4,8.5,142.16,12.37,26,26.6,49.24,39.15,69.73,34.15,55.75,58.82,96,12.07,134.62-44.68,36.9,29.29,149.27,83.3,231.31,19.22,29.21,35.83,54.43,43.21,70.6C472.72,2208.38,465.74,2262.5,465.67,2263.05Z"/><path class="cls-14" d="M444.85,1962.72l-3.83.56c-.33-2.3-34.24-231.41-113.08-389.2l3.46-1.74C410.52,1730.7,444.52,1960.42,444.85,1962.72Z"/><polygon class="cls-14" points="385.97 1715.18 320.22 1676.6 322.17 1673.26 382.96 1708.91 397.59 1607.53 401.41 1608.1 385.97 1715.18"/><path class="cls-14" d="M543.19,2300.81C516.32,2193.31,482.72,2144,429,2056.69c-46.73-75.94-20.16-114.22,56-145.58S404.33,1667,471.52,1602s145.58-60.47,170.22,38.08-29.12,239.64,47,221.72,98.54,73.91,40.31,172.45-129.9,266.52-129.9,266.52Z"/><path class="cls-7" d="M574.55,2310.5a3.38,3.38,0,0,1-.83-.11,3,3,0,0,1-2-3.7c47.09-159.25,11-552.32-17.92-656.82a3,3,0,0,1,2.07-3.66,2.88,2.88,0,0,1,3.66,2.08c29,104.94,65.26,499.94,17.92,660.07A3,3,0,0,1,574.55,2310.5Z"/><path class="cls-7" d="M596.94,2042.87a3,3,0,0,1-2.93-2.52c-8.75-55.72-68.26-134.48-68.87-135.27a3,3,0,0,1,.58-4.17,3,3,0,0,1,4.17.58c2.49,3.26,61,80.72,70,137.93a3,3,0,0,1-2.47,3.4A1.57,1.57,0,0,1,596.94,2042.87Z"/><path class="cls-7" d="M577.91,1771.88a3,3,0,0,1-2.7-1.7c-20.65-43.48-71.13-74.58-71.64-74.9a3,3,0,0,1,3.11-5.08c2,1.24,48.11,29.63,70.9,71.48,6.24-15.52,21.92-53.32,29.56-61a3,3,0,0,1,4.24,0,3.06,3.06,0,0,1,0,4.24c-7,7-24.54,49.32-30.7,65a3,3,0,0,1-2.68,1.89Z"/><path class="cls-14" d="M387.26,2312.93a2.28,2.28,0,0,1-.44,0c-2.75-.58-275.55-61-310.84-350.57a2.16,2.16,0,0,1,.57-1.74,2.27,2.27,0,0,1,1.71-.68c2.72.17,272.41,18.45,352,141.43a2.18,2.18,0,0,1-3.65,2.37c-74.21-114.7-318-137.07-346-139.28,36.22,284.19,304.38,343.66,307.1,344.23a2.17,2.17,0,0,1-.45,4.29Z"/><path class="cls-14" d="M382.42,2199.12a2.17,2.17,0,0,1-1.33-.46L102.63,1982.34a2.18,2.18,0,0,1-.39-3,2.15,2.15,0,0,1,3.05-.37l278.47,216.32a2.17,2.17,0,0,1-1.34,3.88Z"/><path class="cls-14" d="M158,2105.49a2.17,2.17,0,0,1-.24-4.32L247.41,2091l-15.62-71.12a2.17,2.17,0,0,1,1.65-2.58,2.21,2.21,0,0,1,2.59,1.66l16.14,73.46a2.15,2.15,0,0,1-.36,1.72,2.12,2.12,0,0,1-1.52.89l-92,10.49A1.1,1.1,0,0,1,158,2105.49Z"/><path class="cls-14" d="M248.79,2175.67a2.19,2.19,0,0,1-2.13-1.73,2.17,2.17,0,0,1,1.69-2.56l81.52-17a2.13,2.13,0,0,1,2.56,1.68,2.17,2.17,0,0,1-1.68,2.56l-81.52,16.94A1.72,1.72,0,0,1,248.79,2175.67Z"/><path class="cls-15" d="M554.35,2303.89c53.27-222.77,162.23-360.79,293-409.22s124.71,184,53.28,188.87c-60.55,4.11-67.81-48.43-67.81-48.43s-140.44,109-164.65,266.36Z"/><path class="cls-7" d="M832.81,2034.46a3,3,0,0,1-2.95-2.58c-6.5-49.65,4.7-71.13,5.16-72a3,3,0,0,1,4-1.21,3,3,0,0,1,1.23,4c-.11.21-10.73,21-4.51,68.43a3,3,0,0,1-2.56,3.35A2.82,2.82,0,0,1,832.81,2034.46Z"/><path class="cls-7" d="M614.89,2303.24a4,4,0,0,1-.49,0,3,3,0,0,1-2.44-3.43c27.3-165.5,213.1-313.56,215-315a3.06,3.06,0,0,1,4.19.52,3,3,0,0,1-.51,4.19c-1.84,1.44-185.86,148.12-212.81,311.32A3,3,0,0,1,614.89,2303.24Z"/><path class="cls-14" d="M654.43,2307.22c23.56-98.51,71.75-159.55,129.57-181s55.15,81.39,23.56,83.53c-26.77,1.81-30-21.42-30-21.42s-62.11,48.19-72.82,117.79Z"/><path class="cls-16" d="M604,2302.68c2.42-121.07,19.37-237.3-21.8-244.56s-75.06,50.85-79.9-16.95S512,1876.51,463.54,1845s-113.81-14.53-101.7,63,53.27,128.33,41.17,147.7-87.18-17-89.6,29.06,118.65,220.36,118.65,220.36Z"/><path class="cls-7" d="M512.78,2308.08a3,3,0,0,1-2.93-2.39c-.72-3.68-72.78-368.59-87.12-422a3,3,0,0,1,5.77-1.53c14.39,53.53,86.47,418.65,87.21,422.32a3,3,0,0,1-2.35,3.52C513.15,2308.06,513,2308.08,512.78,2308.08Z"/><path class="cls-7" d="M482.11,2158.75a3,3,0,0,1-1.91-.7c-29.77-25-94.13-38.77-94.75-38.91a3,3,0,1,1,1.21-5.82c2.7.56,66.47,14.17,97.35,40.17a3,3,0,0,1,.38,4.19A3,3,0,0,1,482.11,2158.75Z"/><path class="cls-7" d="M495.84,2210.42a2.54,2.54,0,0,1-.72-.09,3,3,0,0,1-2.17-3.61c10.57-42.34,71.69-99.92,74.3-102.34a2.89,2.89,0,0,1,4.19.14,2.93,2.93,0,0,1-.14,4.19c-.61.61-62.43,58.84-72.58,99.45A3,3,0,0,1,495.84,2210.42Z"/><path class="cls-7" d="M443.35,1964.24a3,3,0,0,1-2.77-1.88c-5-12.55-34.09-34.15-44.87-41.41A3,3,0,1,1,399,1916c1.66,1.09,40.41,27.32,47.11,44.15a3,3,0,0,1-2.77,4.07Z"/><path class="cls-7" d="M454.66,2019.13a5.11,5.11,0,0,1-.55-.05,3,3,0,0,1-2.38-3.49c4.94-25.44,26.3-53.37,27.21-54.54a3,3,0,0,1,4.7,3.63c-.21.28-21.41,28-26,52A3,3,0,0,1,454.66,2019.13Z"/><path class="cls-7" d="M599.18,1993.22a2.5,2.5,0,0,1-1-.19,2.93,2.93,0,0,1-1.79-3.79c13.52-37.64,67.24-84.37,69.52-86.35a3,3,0,0,1,3.91,4.52c-.56.46-54.84,47.69-67.85,83.83A2.93,2.93,0,0,1,599.18,1993.22Z"/><path class="cls-3" d="M1820.29,456.06c0-13.74-69.55-24.89-155.34-24.89s-155.33,11.15-155.33,24.89c0,11.94,25.89,404.25,25.89,417.21,0,15.39,58,27.88,129.44,27.88s129.45-12.49,129.45-27.88C1794.4,860.31,1820.29,468,1820.29,456.06Z"/><path class="cls-5" d="M1804.35,521.49c0-11.36-62.35-20.57-139.28-20.57s-139.28,9.21-139.28,20.57c0,9.86,23.22,334,23.22,344.67,0,12.72,52,23,116.06,23s116.07-10.32,116.07-23C1781.14,855.46,1804.35,531.35,1804.35,521.49Z"/><path class="cls-17" d="M1804.4,521.1c0-11.24-62.49-20.35-139.56-20.35s-139.56,9.11-139.56,20.35,62.48,20.35,139.56,20.35S1804.4,532.34,1804.4,521.1Z"/><path class="cls-18" d="M1409.57,1338.37H1276.28c-5.23,7.53-9.5,16.53-15,23.81-8.38,11-24.93,16.2-31.24,3.14,3.32-9.42-.67-20.28-7.06-27H1075.65c-3.06,3.07-6.14,6.08-9.77,7.78-10.32,4.83-21.12-2.14-31.44-7.78h-43c-21,0-44.75,40-69.25,103.21,19.66,7.59,25.91,47.41,8.77,62.82-10.8,9.71-25.74,9.31-36.78,18.18-35.48,112.75-71,261-100.73,398.33,8.75,1.94,16.85,9.13,20.51,19.45,5,14.13,1.21,32.4-8.66,41.56-8.05,7.47-18.89,8.94-27.84,14.15-20.94,100.37-38,189.18-48.4,245.23-6,32,13.25,62.53,39.21,62.53h12.47c3.35-2.48,6.65-5,9.85-7.42,17.42-13.23,42.32-22.51,56-3.51a67.76,67.76,0,0,1,5.88,10.93H1055c4.41-7.87,8.68-15.8,15.49-19.63,13.37-7.53,26.77,4.76,37,19.63H1180c25.19,0,44.21-28.82,39.58-60.19-.5-3.42-1.08-7.29-1.63-11l184.19-78.82Z"/><path class="cls-12" d="M1637.69,2243.64c-2.75-18.63-6.13-41.21-10-66.57-11.64-10.87-24.2-20.73-33.1-35-27.55-44.22-7.41-103.25,1.16-161.42-22.78-132.46-51.4-282.84-82-404.86-4.6,5.41-8.4,13-14.07,16.72-17.92,11.65-32.27-27.07-22.92-49.68,4.93-11.92,12.62-21.72,19.78-31.82-29-102.41-59.07-172.62-87-172.62-44.44,0-101.13,177.77-151.39,380.7a28.82,28.82,0,0,1,8.16,1.23c15.87,16.29,11.85,53.8-6.87,64.14-6,3.3-12.67,4.18-18.73,7-31.9,136-60,275.09-79.15,374a37.07,37.07,0,0,1,9.88,15.52c6.3,19.36-2,44.26-17.4,52a35.14,35.14,0,0,1-5.66,1.89c-.39,2.11-.84,4.45-1.21,6.48-6,32,13.24,62.53,39.2,62.53h214.47a181.52,181.52,0,0,1,14.15-12.75c11.62-9.26,25-17,38.61-15,15.1,2.12,26.73,15,38.6,27.79h105.88C1623.3,2303.83,1642.32,2275,1637.69,2243.64Z"/><g class="cls-19"><path class="cls-20" d="M1080.7,2159.4c9.64.87,13.44,18.63,7.75,28.54s-16.45,12.72-26.11,12.29-19.35-3.34-28.94-1.67c-9,1.57-17.38,7.12-26.39,8.75-16.62,3-34.24-9.17-41.26-28.49a36,36,0,0,1-2.4-15.35c1.71-18.71,21.41-24.85,35.89-20.61s29,14.1,43.41,9.55c7.64-2.41,14.26-8.69,21.92-11s17.74,1.92,18.7,11.82"/></g><path class="cls-18" d="M1557.73,2161.34c9.65.87,13.44,18.63,7.75,28.54s-16.44,12.72-26.11,12.28-19.35-3.34-28.93-1.66c-9,1.57-17.38,7.12-26.4,8.74-16.62,3-34.24-9.16-41.25-28.48a36,36,0,0,1-2.41-15.36c1.71-18.71,21.41-24.84,35.9-20.6s29,14.1,43.4,9.55c7.64-2.41,14.26-8.69,21.93-11s17.74,1.93,18.7,11.83"/><g class="cls-19"><path class="cls-20" d="M1061,2038.45c-.47,14.76-6.51,29.76-16.92,36.42s-25,2.71-30.63-10.2c-4.05-9.22-3-21.18,1.4-30.12a39.33,39.33,0,0,1,19.67-18.53c4.11-1.79,8.54-2.92,12.79-1.79,7.7,2,13.43,12.32,12.39,22.21"/></g><g class="cls-19"><path class="cls-20" d="M1114.52,1703.39c-.48,14.76-6.52,29.75-16.93,36.42s-24.95,2.71-30.63-10.2c-4-9.22-3-21.18,1.4-30.13A39.33,39.33,0,0,1,1088,1681c4.1-1.79,8.53-2.92,12.78-1.79,7.7,2,13.44,12.32,12.39,22.2"/></g><path class="cls-18" d="M1414.19,1744.06c-.47,14.76-6.51,29.76-16.92,36.42s-25,2.71-30.63-10.2c-4.05-9.22-3-21.18,1.4-30.12a39.33,39.33,0,0,1,19.67-18.53c4.11-1.79,8.54-2.92,12.79-1.79,7.7,2.05,13.43,12.33,12.39,22.21"/><g class="cls-19"><path class="cls-20" d="M920.34,1803.84c-.32,9.81-4.33,19.77-11.24,24.19s-16.58,1.8-20.35-6.77c-2.69-6.13-2-14.07.93-20a26.18,26.18,0,0,1,13.07-12.31c2.73-1.19,5.67-1.94,8.49-1.19,5.12,1.37,8.93,8.19,8.23,14.75"/></g><g class="cls-19"><path class="cls-20" d="M828.76,2191.94c8-4.66,12.39-15.79,14.72-26.58s3.31-22.22,7.44-32.1c4.37-10.49,12.26-19.34,12.83-31.18.71-14.73-11.66-26.71-23.28-25.65s-21.46,12-27.28,24.75c-2,4.46-3.71,9.21-6.21,13.27-6,9.71-16.36,15-19.89,26.51-1.48,4.81-1.51,10.11-1.53,15.28,0,11.33.51,24.3,7.48,31.4,4.5,4.57,10.59,5.47,16.33,6.19C815.9,2194.65,822.79,2195.4,828.76,2191.94Z"/></g><g class="cls-19"><path class="cls-20" d="M900,2166.86c6.52,4.16,8,16.41,3.8,24a17,17,0,0,1-19.58,8.33c-7.24-2-13.75-8.85-15.88-17.86s.71-19.82,7.12-24.56,15.82-2,19.32,6.3"/></g><g class="cls-19"><path class="cls-20" d="M1208.83,1452.19c6.52,4.16,8,16.41,3.8,24a17,17,0,0,1-19.58,8.32c-7.24-2-13.75-8.85-15.88-17.86s.71-19.82,7.12-24.56,15.82-2,19.32,6.31"/></g><g class="cls-19"><path class="cls-20" d="M1036.8,1851.25c6.51,4.16,8,16.41,3.8,24a17,17,0,0,1-19.58,8.32c-7.25-2-13.75-8.85-15.88-17.86s.71-19.82,7.12-24.56,15.82-2,19.32,6.31"/></g><path class="cls-18" d="M1354.82,2012c6.52,4.17,8,16.41,3.81,24a17,17,0,0,1-19.59,8.33c-7.24-2-13.75-8.86-15.88-17.87s.71-19.82,7.12-24.55,15.82-2,19.32,6.3"/><g class="cls-19"><path class="cls-20" d="M930.91,2072.32c8.74,5.59,10.73,22,5.1,32.17a22.8,22.8,0,0,1-26.27,11.17c-9.72-2.74-18.45-11.88-21.31-24s1-26.59,9.56-32.94,21.22-2.67,25.91,8.45"/></g><g class="cls-19"><path class="cls-20" d="M966.22,1939c-1.52-7.89-7.62-12.66-12.11-18.47-6.92-9-10.53-21.5-17.91-29.84-8-9-20.07-11.81-30.05-6.89s-17.4,17.32-18.46,30.82c-.26,3.32-.18,6.78-1.23,9.84-2.38,6.94-9.19,9-14.27,13-9.22,7.26-12.71,25.18-5.66,35.63,3.67,5.43,9.22,8.08,14.53,10.53l17.62,8.12c8,3.66,17,7.28,24.59,2.61,6.09-3.73,9.62-11.84,14.68-17.51,5.5-6.16,12.67-9.32,18.73-14.56S968,1948.05,966.22,1939Z"/></g><path class="cls-18" d="M1354.58,2148.2c-1.52-7.9-7.62-12.67-12.11-18.48-6.92-8.95-10.54-21.49-17.91-29.84-8-9-20.07-11.81-30-6.88s-17.41,17.31-18.47,30.81c-.26,3.32-.18,6.78-1.23,9.84-2.37,6.94-9.19,9-14.26,12.95-9.22,7.26-12.72,25.18-5.66,35.63,3.67,5.43,9.22,8.08,14.52,10.53l17.63,8.12c8,3.66,17,7.28,24.59,2.61,6.08-3.73,9.62-11.84,14.68-17.51,5.49-6.16,12.67-9.32,18.73-14.56S1356.32,2157.23,1354.58,2148.2Z"/><g class="cls-19"><path class="cls-20" d="M1000,1609.89c-1-5.22-5-8.37-8-12.21-4.58-5.92-7-14.21-11.84-19.73-5.28-6-13.27-7.81-19.87-4.55s-11.51,11.44-12.21,20.37a26.81,26.81,0,0,1-.81,6.51c-1.57,4.59-6.08,5.92-9.43,8.56-6.1,4.8-8.41,16.65-3.74,23.55,2.42,3.6,6.09,5.35,9.6,7l11.65,5.37c5.26,2.43,11.22,4.82,16.26,1.73,4-2.47,6.36-7.82,9.71-11.58,3.63-4.07,8.37-6.16,12.38-9.62S1001.13,1615.86,1000,1609.89Z"/></g><g class="cls-19"><path class="cls-20" d="M1085.27,1939.14c.12,4.14.58,8.56,2.73,11.68,4.62,6.72,13.56,3.51,19.8,7.63a57.23,57.23,0,0,1,4.7,4c4.44,3.71,9.9,5,15.22,5.08a39.73,39.73,0,0,0,29.65-12.32c8.21-8.52,13.57-21.68,13.35-35.13-.2-11.8-4.48-23.42-2.87-35.05,1.08-7.86,4.74-14.7,7.15-22.08s3.37-16.53-.54-22.8c-4.67-7.5-14.32-6.9-20.48-1.39s-9.73,14.44-13.21,22.93-7.38,17.29-13.89,22.14c-10,7.43-24,4-32.43,14.09-3.27,3.91-5.13,9.34-6.44,14.79A100.35,100.35,0,0,0,1085.27,1939.14Z"/></g><path class="cls-18" d="M1446.1,1995.31c.12,4.14.59,8.55,2.73,11.68,4.63,6.71,13.57,3.51,19.8,7.63a55.61,55.61,0,0,1,4.7,4.05c4.44,3.71,9.91,4.94,15.22,5.07a39.72,39.72,0,0,0,29.65-12.31c8.22-8.53,13.57-21.68,13.35-35.13-.19-11.8-4.47-23.42-2.87-35,1.09-7.86,4.74-14.71,7.15-22.08s3.37-16.54-.53-22.8c-4.68-7.5-14.32-6.91-20.49-1.4s-9.73,14.45-13.2,22.93-7.39,17.3-13.89,22.14c-10,7.43-24,4-32.43,14.1-3.27,3.91-5.13,9.34-6.45,14.78A100.8,100.8,0,0,0,1446.1,1995.31Z"/><g class="cls-19"><path class="cls-20" d="M1031.75,1405.67a6.94,6.94,0,0,0-4.43,2.69c-2.31,3.5-.31,9-1.45,13.28-.31,1.17-.84,2.22-1.23,3.34a22.86,22.86,0,0,0-.8,10.14c.76,6.81,3.24,13.41,7.3,18s9.74,6.94,15.08,5.71c4.69-1.08,9-4.75,13.75-4.66,3.22.06,6.24,1.84,9.38,2.79s6.86.82,9-2.18c2.62-3.6,1.6-9.72-1.09-13.22s-6.55-5.06-10.21-6.6-7.49-3.33-9.95-7.1c-3.76-5.77-3.54-15-8.23-19.61a11.92,11.92,0,0,0-6.42-2.93A25.78,25.78,0,0,0,1031.75,1405.67Z"/></g><path class="cls-15" d="M1034.7,2276.35a5.45,5.45,0,0,1,1.23-3.09c18.74-23.22,52.43-23.59,77-23.85,127.24-1.36,241.2-24.85,338.71-69.84,111-51.2,201.18-132.25,253.87-228.19a28.84,28.84,0,0,0,2-4.4,5.49,5.49,0,0,1-2.09,1.34,5.65,5.65,0,0,1-7.24-3.34c-1.62-4.4.39-8.9,4.86-10.94,4.68-2.15,11.53-1.22,14.47,4,4.11,7.29-.24,15.29-2.12,18.72-53.85,98-145.83,180.79-259,233-99,45.64-214.47,69.48-343.3,70.86-27.93.3-54.18,2-68.41,19.65a5.63,5.63,0,0,1-10-4Z"/><path class="cls-15" d="M1617,2306.7c8.36-6.51,19.87-6.75,30.45-6.27,37.19,1.69,74.76,8.58,111.33,1.64s73.21-32.68,77.7-69.63c5-40.9-32.53-77.19-72.82-85.78s-81.84,3.22-121.18,15.45c-15.91,4.94-32.2,10-48.84,9.24-12.88-.61-25.32-4.72-38.09-6.46-55.89-7.62-107.45,29.87-163,39.56,69.87,20.52,108.39,103.94,179.32,120.42,10.35,2.4,22.12,3,30.68-3.33C1608.11,2317.44,1611.54,2311,1617,2306.7Z"/><path class="cls-14" d="M1444.21,2200.32a2.82,2.82,0,0,1,3-2.59c21.22,1,49.77,10.8,77.37,20.24,28.63,9.8,61.09,20.91,67.57,13.57,12.13-13.75,63.13-16.78,114.3-18.7,5-.18,9.52-.35,13.47-.54,33.94-1.53,108.17,11.11,111.32,11.64a2.83,2.83,0,0,1,2.33,3,2.17,2.17,0,0,1,0,.25,2.82,2.82,0,0,1-3.26,2.31c-.76-.13-76.74-13.07-110.09-11.57-4,.18-8.53.35-13.51.54-34.5,1.3-98.77,3.7-110.32,16.8-8.51,9.66-33.52,1.75-73.61-12-27.23-9.31-55.37-18.94-75.8-19.94a2.82,2.82,0,0,1-2.68-3Z"/><path class="cls-14" d="M1702.22,2216.54a2.8,2.8,0,0,1,.92-1.86l67-61.1a2.81,2.81,0,0,1,3.78,4.16l-64.12,58.47c40.89,23.69,67.34,65.74,68.48,67.56a2.82,2.82,0,0,1-4.79,3c-.27-.45-28.33-45-69.82-67.52a2.78,2.78,0,0,1-1.45-2.13A3.54,3.54,0,0,1,1702.22,2216.54Z"/><path class="cls-14" d="M1623.34,2222.29a2.88,2.88,0,0,1,.88-1.83l59.55-56a2.81,2.81,0,0,1,4,.12,2.86,2.86,0,0,1-.11,4l-56.52,53.18c22.16,12,74.1,64.23,76.43,66.58a2.81,2.81,0,1,1-4,4c-20.89-21.05-64.15-62.18-78.34-67.08a2.87,2.87,0,0,1-1.84-2.08A3.16,3.16,0,0,1,1623.34,2222.29Z"/><path class="cls-14" d="M1554.72,2232.4a2.78,2.78,0,0,1,.7-1.65c14.94-16.94,39.25-45,40.85-48.28a2.89,2.89,0,0,1,3.73-1.36,2.69,2.69,0,0,1,1.44,3.6c-1.63,3.9-28.27,34.39-39.53,47.19,15,10.75,40.39,54.16,43.44,59.43a2.81,2.81,0,1,1-4.86,2.82c-12.54-21.69-34.61-55.26-44-58.91a2.8,2.8,0,0,1-1.72-2A2.62,2.62,0,0,1,1554.72,2232.4Z"/><path class="cls-14" d="M1490.87,2209a2.8,2.8,0,0,1,1.32-2.16l52-32.62a2.82,2.82,0,1,1,3,4.79l-48.4,30.32c21.66,17.28,20.76,64,20.7,66.08v.16a2.82,2.82,0,0,1-5.63-.29c0-.51,1-50.67-21.6-63.61a2.79,2.79,0,0,1-1.4-2.39A.88.88,0,0,1,1490.87,2209Z"/><path class="cls-11" d="M1960.33,1865.34a83.23,83.23,0,0,0,28.83-14.06c3.15-2.38,6.27-5.22,7.36-9,1.74-6.08-2.61-12.61-8.33-15.32s-12.35-2.46-18.64-1.75a145.29,145.29,0,0,0-61,21.53l44.2-35c6.82-5.41,14-11.3,16.65-19.59s-1.7-19.36-10.35-20.32c-9-1-17,9-25.86,7,6.84-7.43,12.15-18.42,7.47-27.36-3.47-6.63-11.6-9.77-19.06-9.29s-14.39,3.95-20.83,7.74a180.85,180.85,0,0,0-55.32,50.72,439.58,439.58,0,0,0,45.94-73.57c3.43-6.94,6.71-15.13,3.46-22.15a153,153,0,0,0-35.18,33.42,43,43,0,0,0,7.93-43.61c-.89-2.27-2.26-4.69-4.62-5.28s-4.56.81-6.52,2.12l-19.89,13.37c-5.18-8-1.89-18.38-1.08-27.84s-4.48-21.8-13.88-20.44c-12.46,1.8-10.12,22.79-20.67,29.67,1.35-7.39,2.65-15.23-.13-22.2s-11.34-12.18-18-8.65c-4.2,2.24-6.24,7-8,11.47l-28.67,73.86a372.48,372.48,0,0,0,16.75-100c-4.73,7.38-9.49,14.82-12.66,23s-4.71,17.2-6.18,26q-7.74,46.35-15.47,92.71c-1,6-2,12.1-.89,18.07,1.27,6.91,5.23,13,9.14,18.82q26,38.8,54.07,76.16c3.5,4.65,7.15,9.41,12.17,12.36,5.24,3.07,11.47,3.9,17.52,4.39,34.18,2.78,68.43-2.86,102.26-8.49l63.13-10.49c4.51-.75,9.23-1.59,12.8-4.43s5.45-8.38,2.79-12.09c-1.51-2.1-4.06-3.15-6.49-4A133.57,133.57,0,0,0,1960.33,1865.34Z"/><path class="cls-21" d="M1781.9,1945.42c28.86-24.44,1.67-41.55-21.68-69.13s-34-55.18-62.89-30.73-33.33,66.61-10,94.19S1753,1969.87,1781.9,1945.42Z"/><path class="cls-3" d="M1857.18,1723.85a84.18,84.18,0,0,0-24.8,12.11c6.91-.66,10.58-10,7.23-16s-11.33-8.45-18.12-7-12.52,6-17.41,10.87c-9.18,9.23-16.28,20.3-22.85,31.54a482.42,482.42,0,0,0-29.39,59.27,905.34,905.34,0,0,0,20.25-98.26c1.54-10.37,2.64-21.95-3.52-30.44a27.42,27.42,0,0,0-19,25.27,29.62,29.62,0,0,0-12.57-28.74c-6.94,54.35-14.16,109.72-37.32,159.37a457.8,457.8,0,0,1,73.6,91.75c3.32,5.45,7.46,11.58,13.81,12.15,3.41.3,6.71-1.14,9.86-2.47,49.55-20.92,105-21.33,157.87-31,4.22-.76,8.59-1.67,12-4.29s5.43-7.51,3.48-11.33c-1.61-3.18-5.31-4.63-8.75-5.6-28.27-7.92-58.31-.55-86.72,6.81a310.6,310.6,0,0,0,86.41-42.37c2.72-1.91,5.59-4.1,6.53-7.3,1.53-5.23-3.16-10.64-8.47-11.91s-10.81.41-16,2.13a647.83,647.83,0,0,0-119.65,53.91,821,821,0,0,1,101.83-66.13c4.84-2.66,9.92-5.46,12.84-10.15s2.65-11.84-2-14.74c-3.26-2-7.44-1.4-11.18-.57a152.87,152.87,0,0,0-32.3,11,114.84,114.84,0,0,0,18.19-24.87c2.62-4.83,4.78-11.16,1.37-15.48-4.19-5.31-12.64-2.86-18.65.26-38,19.77-70.93,48-103.44,76a728.13,728.13,0,0,0,72.43-112.72c2-3.81,3.22-9.76-.79-11.31C1860.43,1723,1858.73,1723.39,1857.18,1723.85Z"/><path class="cls-22" d="M2374,2248.06v63.23c0,17.24,72.39,31.21,161.68,31.21s161.68-14,161.68-31.21v-63.23Z"/><ellipse class="cls-23" cx="2535.33" cy="1914.83" rx="381.64" ry="79.78"/><path class="cls-24" d="M2535.33,2001.82c-188.5,0-388.84-30.49-388.84-87s200.34-87,388.84-87,388.85,30.48,388.85,87S2723.84,2001.82,2535.33,2001.82Zm0-159.57c-220.66,0-374.43,38.25-374.43,72.58s153.77,72.58,374.43,72.58,374.44-38.25,374.44-72.58S2756,1842.25,2535.33,1842.25Z"/><path class="cls-5" d="M2896.18,1948.49c-1.39-5.55-4.16-40.23-9.71-44.39s-23.59-2.78-23.59-2.78l-15.26-13.87,2.78-29.13s-11.1-25-19.43-29.14-26.36-11.1-26.36-11.1l-20.81,15.26-40.23-18s4.16-13.87-8.32-25-13.88-16.65-22.2-19.43-25,1.39-25,1.39-9.71,18-15.26,19.42-27.75-1.38-27.75-1.38l-5.55-20.81s-1.38-5.55-8.32-9.71-36.07-8.33-36.07-8.33l-18,12.49s-11.1-5.55-15.26-9.71-13.87-9.71-13.87-9.71h-19.42l-15.26,11.09v19.43l-38.85,8.32L2461.94,1764l-13.87-6.94-27.75-1.39-11.09,19.43-11.1,13.87-27.75-4.16-27.75,8.32-11.09,19.42-9.72,13.88-25-4.16h-29.13l-6.94,15.26-4.16,27.74-22.2,15.26-26.36-9.71-29.13,9.71-9.71,33.3,1.39,23.58,27.74,52.72,65.21,26.36s205.32,68,213.65,68,284.4-45.78,284.4-45.78Z"/><path class="cls-25" d="M2295,2026.83c19.61-2.79,39.25-7.68,55.88,1.86l-22-37.74c-2.28-3.91-4.64-7.92-8.19-10.73-3.91-3.1-8.88-4.47-13.7-5.75l-49-13.08c-28.53-7.62-62.21-20.58-67.21-49.68-2.16-12.56,1.92-25.2,6.28-37.24l-18.13,6-9.71,33.3,1.39,23.58,2.81,5.34c.75.89,1.5,1.8,2.26,2.68l37,42.9c3.44,4,7,8,10.66,11.92l40.19,16.24S2276.05,2020.61,2295,2026.83Z"/><path class="cls-3" d="M2321.3,1890.43c7.29,10.08,7.26,25.51,17.78,32.15,6.25,3.94,14.23,3.3,21.58,2.53l59.28-6.23a93.16,93.16,0,0,0-45.32-6.05c-.53-14.53-18.09-25.5-31.39-19.63-13.11-8.94-27.5-20-28.83-35.78-.89-10.58,4.4-21,4.9-31.43l-22.45-3.74h-9.11a51.27,51.27,0,0,1-.21,9c-1.18,10.58-3.78,22,1.16,31.38C2295.39,1875.45,2312.84,1878.75,2321.3,1890.43Z"/><path class="cls-3" d="M2886.47,1904.1c-5.55-4.16-23.59-2.78-23.59-2.78l-6.55-6c-1.41,4.2-3.09,8.35-6,11.69s-7,5.91-9.92,9.47c-10.6,13.13-.92,33.56-7.34,49.16-2.82,6.84-8.47,12.06-12.33,18.36-3.64,5.93-5.68,12.83-7.33,19.89l82.74-55.45C2894.79,1942.94,2892,1908.26,2886.47,1904.1Z"/><path class="cls-3" d="M2771.19,1915.34c-2.27-19.8-3.93-41.92,8.38-57.6,11.8-15,32.56-19.2,48.36-30-9-4.15-23.32-9.66-23.32-9.66l-20.81,15.26-31.88-14.29c-1.14,4.83-5,8.51-8.24,12.32a55.6,55.6,0,0,0-13,37.77c8.94,1.42,12.76,13.38,9.13,21.68s-11.93,13.42-20,17.61-16.61,8.27-21.85,15.65c-12.2-3.4-24.72-6.95-34.85-14.56s-17.47-20.3-15.06-32.73c-12.5.2-15.85,18.28-10.78,29.71s14.54,21.93,13.53,34.39c12.48,3,23-14.83,35.46-11.63,7.13,1.84,10.88,9.86,17.44,13.19,11.8,6,24.66-5.23,33.53-15S2760.53,1907.49,2771.19,1915.34Z"/><path class="cls-3" d="M2527.37,1865.81c4.07-.94,8.31-2,11.47-4.67,6.59-5.66,6.13-16.4,11.95-22.86,8.18-9.08,22.93-5,34.27-.43s26.51,7.94,33.93-1.77c6.67-8.72,2.69-23.73,11.73-29.95,6.27-4.32,14.78-1.37,22.36-2.14,8.11-.81,14.07-5.58,18.6-12.13-6.79.93-26.61-1.52-26.61-1.52l-5.55-20.81s-1.38-5.55-8.32-9.71a27.45,27.45,0,0,0-5.93-2.32c5.92,11.44,4.4,27.8-3.09,39.22-4.29,6.55-11.36,12.69-19.06,11.23-4.08-.77-7.45-3.56-11.23-5.29-12.86-5.89-27.65,1-40,7.85-2.56,1.4-5.25,2.94-6.57,5.53-1.55,3-.79,6.69-.79,10.11,0,15.87-17.14,26.76-33,28a60.41,60.41,0,0,1-48.4-19.08l24.33,39.89Z"/><path class="cls-3" d="M2573.25,1962.37q6.83-11.4,13.66-22.8a31.69,31.69,0,0,1-13.22-22.31,97,97,0,0,1-13.58,18.86,12.83,12.83,0,0,1-5.22,3.92c-2.46.78-5.11.13-7.61-.52l-27.39-7.19c-2-.53-4.13-1-6.11-.45-2.39.72-4,2.88-5.62,4.78-10.8,12.74-29.58,18-45.45,12.83-3.19-1-7.51-2.12-9.25.75a6.19,6.19,0,0,0-.69,3.15,33.65,33.65,0,0,0,11.14,25.66,31.29,31.29,0,0,0,27.25-4.09c5.37-3.77,9.37-9.13,14.1-13.68s10.76-8.48,17.32-8.14c8.06.42,14.24,6.93,20.28,12.29s14.58,10.13,21.82,6.54C2568.58,1970,2571,1966.1,2573.25,1962.37Z"/><path class="cls-3" d="M2369.06,1831.88a56.2,56.2,0,0,1,7.72-25.57l4.55,1.67a18,18,0,0,0,6.7,19.43,27.68,27.68,0,0,0,9.73,3.92,65.3,65.3,0,0,0,36.06-1.93,44.31,44.31,0,0,1-26.87,23.08c-4.25,1.28-9,1.88-13,.1-2.86-1.24-5.13-3.55-7.85-5.08-5.67-3.21-13.87-3.69-16.33-9.72A13.67,13.67,0,0,1,2369.06,1831.88Z"/><path class="cls-25" d="M2694.68,2012.39a8.82,8.82,0,0,0,3.55-2.48c1-1.42,1.09-3.29,1.22-5a42.34,42.34,0,0,1,11.22-25.47q-15.49-1.51-30.84-4.14c-.77,7.71-1.63,15.72-5.66,22.34s-12.22,11.4-19.58,9c-5.48-1.82-9.05-6.93-12.88-11.25s-9.32-8.36-14.92-6.94c-2.87.73-5.19,2.79-7.48,4.68a93.09,93.09,0,0,1-67.24,20.57c-2.89,2.23,1,6.41,4.45,7.75l20.44,8.07c3.07,1.21,6.25,2.44,9.54,2.31a18.14,18.14,0,0,0,7.32-2.17c10.8-5.41,19.74-16.25,31.83-16.19,11.91,0,21.47,11,33.35,11.86,7.05.53,13.81-2.56,20.2-5.57Z"/><path class="cls-22" d="M2535.66,1994.61c-214.43,0-388.27-35.72-388.27-79.78V1954c0,186.29,151,337.3,337.3,337.3h101.95c186.28,0,337.3-151,337.3-337.3v-39.15C2923.94,1958.89,2750.1,1994.61,2535.66,1994.61Z"/><path class="cls-24" d="M2875,1871.45c-.71,1.72-1.27,3.49-2.15,5.16a46.3,46.3,0,0,1-4.86,7c26.93,10.13,41.75,21.14,41.75,31.77,0,34.33-153.78,72.58-374.44,72.58s-374.43-38.25-374.43-72.58c0-3.52,1.69-7.08,4.83-10.63a61.23,61.23,0,0,1-4.66-6,44.29,44.29,0,0,1-2.88-5.92c-7.52,7-11.7,14.48-11.7,22.53,0,56.5,200.34,87,388.84,87s388.85-30.49,388.85-87C2924.18,1898.34,2905.8,1883.65,2875,1871.45Z"/><path class="cls-21" d="M3610.32,2354.75H21.66c-12,0-21.66-12.2-21.66-27.25s9.7-27.24,21.66-27.24H3610.32c12,0,21.66,12.2,21.66,27.24S3622.28,2354.75,3610.32,2354.75Z"/><path class="cls-26" d="M1496.9,563.59l134-5.94a43.21,43.21,0,0,1,15.39,84.25,43.11,43.11,0,0,1,15.91,78.26,43,43,0,0,1-5.62,80.25,38.73,38.73,0,0,1-14.37,74l-120.14,5.31a38.71,38.71,0,0,1-21-72.29,43.08,43.08,0,0,1-15.19-78.19,42.92,42.92,0,0,1,4.73-79.91,43.26,43.26,0,0,1,6.3-85.71Z"/><path class="cls-7" d="M1646.86,643.47a1.67,1.67,0,0,0-.65-3.23l-155.68,7.4a1.69,1.69,0,0,0-1.6,1.75,1.67,1.67,0,0,0,1.75,1.58l155.69-7.4A1.64,1.64,0,0,0,1646.86,643.47Z"/><path class="cls-7" d="M1662.77,721.73a1.67,1.67,0,0,0-.59-3.24l-95.61.75a1.68,1.68,0,0,0,0,3.35l95.61-.75A1.46,1.46,0,0,0,1662.77,721.73Z"/><path class="cls-7" d="M1618.9,804.65a1.68,1.68,0,0,0,1.1-1.57,1.66,1.66,0,0,0-1.66-1.67l-108.4-.34a1.62,1.62,0,0,0-1.67,1.66,1.65,1.65,0,0,0,1.66,1.67l108.4.34A1.55,1.55,0,0,0,1618.9,804.65Z"/><path class="cls-7" d="M1657.15,802a1.67,1.67,0,0,0-.48-3.24l-15.21-.78a1.66,1.66,0,0,0-1.76,1.58,1.68,1.68,0,0,0,1.58,1.76l15.21.78A1.76,1.76,0,0,0,1657.15,802Z"/><path class="cls-7" d="M1607.54,625a1.71,1.71,0,0,0,.49.1l35.08,2.8a1.67,1.67,0,0,0,1.39-.53c.57-.59,13.73-14.81,11.34-35.92a1.77,1.77,0,0,0-1.92-1.52,1.73,1.73,0,0,0-1.53,1.91c1.94,17.14-7.5,29.7-9.87,32.54l-33.43-2.67c-14.81-20-4.39-43.52-1.92-48.48l29.13,1.89a1.7,1.7,0,0,0,1.83-1.61,1.74,1.74,0,0,0-1.61-1.84l-30.24-2a1.73,1.73,0,0,0-1.62.86c-.16.3-16.55,29.61,2.14,53.87A1.78,1.78,0,0,0,1607.54,625Z"/><path class="cls-7" d="M1622.44,707.33a2.07,2.07,0,0,0,.5.06l35.18.12a1.67,1.67,0,0,0,1.35-.64c.53-.63,12.56-15.81,8.56-36.68a1.78,1.78,0,0,0-2-1.37,1.73,1.73,0,0,0-1.38,2c3.24,16.95-5.22,30.19-7.36,33.2l-33.54-.11c-16.29-18.77-7.7-43.06-5.61-48.19l29.18-.34a1.7,1.7,0,0,0,1.71-1.74,1.73,1.73,0,0,0-1.74-1.71l-30.31.35a1.7,1.7,0,0,0-1.54,1c-.15.31-14.25,30.79,6.24,53.55A1.84,1.84,0,0,0,1622.44,707.33Z"/><path class="cls-7" d="M1622.91,787.09a1.68,1.68,0,0,0,.5.07l35.19.12a1.7,1.7,0,0,0,1.35-.64c.52-.63,12.55-15.81,8.55-36.68a1.78,1.78,0,0,0-2-1.37,1.72,1.72,0,0,0-1.38,2c3.24,16.95-5.22,30.19-7.36,33.2l-33.54-.11c-16.29-18.77-7.69-43.06-5.6-48.19l29.18-.34a1.72,1.72,0,0,0,1.71-1.74,1.74,1.74,0,0,0-1.75-1.71l-30.3.35a1.7,1.7,0,0,0-1.55,1c-.14.31-14.25,30.79,6.24,53.55A1.73,1.73,0,0,0,1622.91,787.09Z"/><path class="cls-7" d="M1616.25,865.48a2,2,0,0,0,.48.06l33.32.11a1.6,1.6,0,0,0,1.28-.6c.5-.6,11.89-15,8.11-34.75a1.68,1.68,0,0,0-1.92-1.29,1.64,1.64,0,0,0-1.31,1.91c3.07,16.05-4.94,28.59-7,31.45l-31.76-.11c-15.43-17.78-7.29-40.78-5.31-45.65l27.64-.31a1.64,1.64,0,0,0,1.62-1.66,1.66,1.66,0,0,0-1.66-1.62l-28.7.33a1.64,1.64,0,0,0-1.47.93c-.13.3-13.49,29.17,5.91,50.73A1.87,1.87,0,0,0,1616.25,865.48Z"/><path class="cls-9" d="M3668.64,1091H3547.4a15.55,15.55,0,0,1-14.57-10.22l-18.76-51.53a210.8,210.8,0,0,1-6.7-22.37c-28-12.15-52.37-51.9-56.86-80.72-3.68-23.43,3.77-41.49,21-50.83,10.33-5.56,20.78-8.4,31-8.4a58,58,0,0,1,31.42,9.5,39.85,39.85,0,0,0,1.65-11.32V820.43a4.91,4.91,0,0,0-4.91-4.89,9.45,9.45,0,0,1-9.1-11.87,9.57,9.57,0,0,1,9.4-7h185.74a9.42,9.42,0,0,1,9.1,11.85,9.55,9.55,0,0,1-9.38,7,36.15,36.15,0,0,0-36.1,36.1v13.47a40,40,0,0,0,9.87,26.33,99.26,99.26,0,0,1,24.48,65.26,211.29,211.29,0,0,1-12.8,72.55l-18.74,51.53A15.54,15.54,0,0,1,3668.64,1091ZM3502.58,872.89c-9.29,0-18.76,2.58-28.21,7.7-14.85,8-21.23,23.88-18,44.64,4.35,27.68,28.62,66.38,54.62,76.72l1.44.58.38,1.51a208.35,208.35,0,0,0,6.84,23.16l18.76,51.53a9.6,9.6,0,0,0,9,6.31h121.24a9.61,9.61,0,0,0,9-6.31l18.73-51.53a205.53,205.53,0,0,0,12.43-70.5,93.37,93.37,0,0,0-23-61.35,45.93,45.93,0,0,1-11.33-30.24V851.64a42.12,42.12,0,0,1,42.06-42.06,3.62,3.62,0,0,0,3.6-2.51,3.38,3.38,0,0,0-.58-3.05,3.46,3.46,0,0,0-2.74-1.35H3531a3.67,3.67,0,0,0-3.63,2.49,3.51,3.51,0,0,0,.61,3.07,3.42,3.42,0,0,0,2.72,1.35,10.87,10.87,0,0,1,10.87,10.85v44.68a45.57,45.57,0,0,1-3.33,17.09l-1.44,3.56-3.1-2.28A52.83,52.83,0,0,0,3502.58,872.89Zm6.3,110.86-5.63-5.08c-12.8-11.45-28.12-33.82-31.54-55.83-2.23-14.2,1.14-23.81,10-28.61,15.51-8.33,31.12-7.4,43.67,2.4l2.3,1.81-1.77,2.33a93.92,93.92,0,0,0-18.69,55.93c0,6.24.31,12.62.94,19.48Zm-6.23-89.33a37.92,37.92,0,0,0-18.07,5.07c-6.42,3.45-8.77,11-7,22.42,2.75,17.48,13.52,35.21,24.06,46.78-.23-4.1-.34-8.08-.34-12a100.1,100.1,0,0,1,18.1-57.07A30,30,0,0,0,3502.65,894.42Z"/><path class="cls-9" d="M3661.31,1075.87H3554.5a13.65,13.65,0,0,1-12.82-8.8l-16.57-45.34a183.2,183.2,0,0,1-11.25-63.45,86,86,0,0,1,6.13-31.93l1-2.65,2.7.93a96.79,96.79,0,0,0,36.45,5.35c16.27-.7,32.33-5.51,47.88-10.15,14.59-4.37,29.67-8.86,45.22-10.17a116,116,0,0,1,34.29,2.47l1.23.28.67,1.09A86.59,86.59,0,0,1,3702,958.28a183.42,183.42,0,0,1-11.24,63.45l-16.57,45.34A13.66,13.66,0,0,1,3661.31,1075.87Zm-136.79-144.7a80.67,80.67,0,0,0-4.7,27.11,177.82,177.82,0,0,0,10.87,61.4l16.57,45.34a7.71,7.71,0,0,0,7.24,4.89h106.81a7.7,7.7,0,0,0,7.24-4.89l16.57-45.34a177.58,177.58,0,0,0,10.87-61.4,80.66,80.66,0,0,0-11-40.61,103.42,103.42,0,0,0-31.22-2c-14.94,1.23-29.74,5.66-44,9.92-15.9,4.74-32.31,9.66-49.3,10.4A101,101,0,0,1,3524.52,931.17Z"/><path class="cls-9" d="M873.91,538.87a36.84,36.84,0,0,1-36.48-32.09,36.89,36.89,0,0,1-48.37-3.2,36.93,36.93,0,0,1-4.35-46.69,36.67,36.67,0,0,1,.91-71.68,36.79,36.79,0,0,1,52-51.06,36.7,36.7,0,0,1,72-1.84,36.88,36.88,0,0,1,19.92-5.82A36.77,36.77,0,0,1,959.3,384.7a36.78,36.78,0,0,1,1,72.88,37,37,0,0,1-4.78,46,36.29,36.29,0,0,1-25.85,10.68,36.74,36.74,0,0,1-19.53-5.59A36.88,36.88,0,0,1,873.91,538.87ZM840.57,495.8a3.52,3.52,0,0,1,1.31.26,3.42,3.42,0,0,1,2.12,3.17v2.86a29.91,29.91,0,0,0,59.81.15,3.43,3.43,0,0,1,5.73-2.53,30,30,0,0,0,20.08,7.68,29.45,29.45,0,0,0,21-8.66,30.06,30.06,0,0,0,.4-41.81,3.43,3.43,0,0,1,2.48-5.81h1.31a29.92,29.92,0,0,0,0-59.83H952a3.43,3.43,0,0,1-2.43-5.85l1.1-1.1a29.86,29.86,0,0,0-41.22-43.18,3.43,3.43,0,0,1-5.73-2.36A29.85,29.85,0,0,0,844,340.3v1.21a3.44,3.44,0,0,1-5.85,2.44L836.23,342a29.91,29.91,0,0,0-42.31,42.3l1.14,1.14a3.43,3.43,0,0,1-2.4,5.85,29.83,29.83,0,0,0-1.28,59.61,3.43,3.43,0,0,1,2.27,5.82,30,30,0,0,0,.27,42,30,30,0,0,0,42.3,0l1.93-1.93A3.43,3.43,0,0,1,840.57,495.8Z"/><path class="cls-9" d="M873.91,465.49a44.3,44.3,0,1,1,44.3-44.29A44.34,44.34,0,0,1,873.91,465.49Zm0-81.73a37.44,37.44,0,1,0,37.44,37.44A37.47,37.47,0,0,0,873.91,383.76Z"/><path class="cls-9" d="M840.57,502.66a3.36,3.36,0,0,1-1.41-.31,3.41,3.41,0,0,1-1.71-4.53l17.22-38a3.43,3.43,0,1,1,6.24,2.83l-17.22,38A3.41,3.41,0,0,1,840.57,502.66Z"/><path class="cls-9" d="M791.19,457.79a3.43,3.43,0,0,1-1.33-6.59l43.5-18.38a3.44,3.44,0,0,1,2.67,6.33l-43.51,18.37A3.44,3.44,0,0,1,791.19,457.79Z"/><path class="cls-9" d="M837.18,404.6a3.37,3.37,0,0,1-1-.17L790.46,390a3.43,3.43,0,1,1,2.06-6.54l45.69,14.41a3.43,3.43,0,0,1-1,6.71Z"/><path class="cls-9" d="M856.37,385.05a3.45,3.45,0,0,1-3.21-2.2l-15.79-41.32a3.43,3.43,0,1,1,6.4-2.46l15.8,41.32a3.43,3.43,0,0,1-2,4.43A3.26,3.26,0,0,1,856.37,385.05Z"/><path class="cls-9" d="M891.19,386.12a3.63,3.63,0,0,1-1.16-.2,3.45,3.45,0,0,1-2.07-4.39l16.35-45.48a3.43,3.43,0,1,1,6.46,2.31l-16.35,45.49A3.43,3.43,0,0,1,891.19,386.12Z"/><path class="cls-9" d="M911.09,405.66A3.43,3.43,0,0,1,910,399l40.86-14.37a3.43,3.43,0,1,1,2.28,6.47l-40.86,14.38A3.45,3.45,0,0,1,911.09,405.66Z"/><path class="cls-9" d="M953.5,458a3.32,3.32,0,0,1-1.34-.28l-39.57-16.78a3.43,3.43,0,0,1,2.68-6.31l39.57,16.78A3.43,3.43,0,0,1,953.5,458Z"/><path class="cls-9" d="M907.24,505.69a3.41,3.41,0,0,1-3.25-2.35l-14.28-43.18a3.43,3.43,0,0,1,6.52-2.16l14.27,43.18a3.43,3.43,0,0,1-2.18,4.34A3.38,3.38,0,0,1,907.24,505.69Z"/></g></g></g></svg>