<svg xmlns="http://www.w3.org/2000/svg" viewBox="0 0 3837.82 2394.49"><defs><style>.cls-1{fill:#77ccf4;}.cls-2{fill:#af9f49;}.cls-3{fill:#ebb241;}.cls-4{fill:#fff;}.cls-5{fill:#adbe9c;}.cls-6{fill:#779158;}.cls-7{fill:#5c7040;}.cls-8{fill:#3c251d;}.cls-9{fill:#8fa274;}.cls-10{fill:#1a2e3c;}.cls-11{fill:#efc266;}.cls-12{fill:#e38064;}.cls-13{fill:#325056;}.cls-14{fill:#70aab8;}.cls-15{fill:#dc4747;}.cls-16{fill:#315763;}.cls-17{fill:#e69654;}.cls-18{fill:#3c6a7c;}.cls-19{fill:#f5eabc;}.cls-20{fill:#632727;}</style></defs><title>Asset 1</title><g id="Layer_2" data-name="Layer 2"><g id="Layer_1-2" data-name="Layer 1"><path class="cls-1" d="M344.36,1508.26C67.75,1707.39,48.64,2092.39,211.25,2370.43c174,6.52,3380.51,24.57,3394.16,0C3917.05,1809.77,3962.74,810.85,3446,351.06c-171.4-152.5-387.33-249.89-611.15-300.26-303.19-68.23-634.89-49.15-905.34,103.94-320.12,181.2-464,531.1-677.51,811.68-105.23,138.25-227,261.41-388.47,330.82C693,1370.55,501.43,1396.68,347.37,1506.1Z"/><path class="cls-1" d="M1268.71,353.91c103,89.53,79.31,304.88,18.2,417.28-118.63,218.15-373.73,442.2-635.72,440.86-130.8-.67-267.4-97.31-244.6-240.72C420.77,882.08,482.93,808.57,547.14,745,661.33,631.88,789.5,534.38,920,441.05,1016.87,371.76,1151.46,252,1268.71,353.91Z"/><path class="cls-2" d="M3163.71,638.41H3041.1a15.71,15.71,0,0,1-14.73-10.34l-19-52.11a210.19,210.19,0,0,1-6.78-22.62c-28.36-12.28-53-52.48-57.5-81.62-3.72-23.7,3.81-42,21.25-51.41,10.45-5.62,21-8.49,31.4-8.49a58.65,58.65,0,0,1,31.77,9.6,40.05,40.05,0,0,0,1.68-11.44V364.79a5,5,0,0,0-5-4.94,9.56,9.56,0,0,1-9.2-12,9.68,9.68,0,0,1,9.51-7h187.82a9.52,9.52,0,1,1-.28,19,36.55,36.55,0,0,0-36.51,36.5V410a40.55,40.55,0,0,0,10,26.62,100.37,100.37,0,0,1,24.76,66A213.55,213.55,0,0,1,3197.39,576l-18.95,52.11A15.72,15.72,0,0,1,3163.71,638.41ZM2995.77,417.84c-9.39,0-19,2.61-28.53,7.79-15,8.12-21.46,24.15-18.19,45.15,4.4,28,28.95,67.12,55.24,77.57l1.46.59.38,1.53a210.9,210.9,0,0,0,6.92,23.42L3032,626a9.69,9.69,0,0,0,9.08,6.38h122.61a9.7,9.7,0,0,0,9.08-6.38l18.95-52.11a207.92,207.92,0,0,0,12.57-71.29A94.42,94.42,0,0,0,3181,440.55,46.42,46.42,0,0,1,3169.57,410V396.35a42.59,42.59,0,0,1,42.53-42.53,3.68,3.68,0,0,0,3.65-2.54,3.43,3.43,0,0,0-.59-3.08,3.49,3.49,0,0,0-2.78-1.37H3024.56a3.72,3.72,0,0,0-3.68,2.52,3.59,3.59,0,0,0,.62,3.11,3.46,3.46,0,0,0,2.75,1.36,11,11,0,0,1,11,11V410a46.21,46.21,0,0,1-3.36,17.28l-1.46,3.6-3.13-2.31A53.49,53.49,0,0,0,2995.77,417.84ZM3002.15,530l-5.7-5.13c-12.94-11.58-28.43-34.2-31.89-56.47-2.26-14.36,1.15-24.08,10.14-28.92,15.68-8.43,31.47-7.49,44.16,2.42l2.33,1.84L3019.4,446a94.94,94.94,0,0,0-18.9,56.56c0,6.31.31,12.76.94,19.7Zm-6.31-90.34a38.27,38.27,0,0,0-18.26,5.13c-6.5,3.49-8.88,11.11-7.09,22.67,2.78,17.68,13.68,35.61,24.34,47.31-.24-4.14-.35-8.17-.35-12.12a101.14,101.14,0,0,1,18.31-57.71A30.28,30.28,0,0,0,2995.84,439.61Z"/><path class="cls-3" d="M3156.29,623.11h-108a13.81,13.81,0,0,1-13-8.9l-16.76-45.85a185.58,185.58,0,0,1-11.36-64.16,87,87,0,0,1,6.19-32.29l1-2.69,2.74.94a97.88,97.88,0,0,0,36.85,5.42c16.46-.71,32.7-5.58,48.42-10.26,14.76-4.43,30-9,45.73-10.29a117.18,117.18,0,0,1,34.67,2.5l1.25.28.68,1.1a87.59,87.59,0,0,1,12.62,45.29A185.59,185.59,0,0,1,3186,568.36l-16.76,45.85A13.8,13.8,0,0,1,3156.29,623.11ZM3018,476.78a81.22,81.22,0,0,0-4.76,27.42,179.91,179.91,0,0,0,11,62.09L3041,612.14a7.79,7.79,0,0,0,7.32,4.94h108a7.77,7.77,0,0,0,7.32-4.94l16.76-45.85a179.67,179.67,0,0,0,11-62.09,81.45,81.45,0,0,0-11.11-41.07,104.06,104.06,0,0,0-31.56-2.07c-15.11,1.24-30.08,5.72-44.53,10-16.08,4.8-32.67,9.77-49.85,10.52A102,102,0,0,1,3018,476.78Z"/><path class="cls-4" d="M3228.3,1039.1l330.74,5.33c37.77.61,72.25-17.86,87.55-46.83,18.66-35.34,31-78.13-14.8-82.74-79.39-8-111.15,42.61-111.15,42.61S3571.45,813.67,3454,811s-193.73,117.18-193.73,117.18-3.18-42.61-69.87-24A67,67,0,0,0,3162,920.54C3114.19,965.9,3156.11,1037.93,3228.3,1039.1Z"/><path class="cls-4" d="M580.26,1547.27l204.94,3.31c23.41.37,44.77-11.07,54.25-29,11.56-21.9,19.24-48.41-9.17-51.27-49.19-5-68.87,26.4-68.87,26.4s31.48-89.1-41.33-90.75-120,72.6-120,72.6-2-26.4-43.29-14.85a41.58,41.58,0,0,0-17.56,10.12C509.56,1501.91,535.53,1546.55,580.26,1547.27Z"/><path class="cls-4" d="M2180.82,476.44l472.28,7.62c54,.87,103.18-25.51,125-66.88,26.65-50.46,44.34-111.56-21.12-118.15-113.38-11.4-158.73,60.85-158.73,60.85s72.56-205.35-95.23-209.15S2226.4,318.05,2226.4,318.05s-4.53-60.85-99.77-34.23a95.88,95.88,0,0,0-40.46,23.33C2017.87,371.91,2077.74,474.78,2180.82,476.44Z"/><path class="cls-2" d="M447.05,1311.49a3.7,3.7,0,0,1-1.57-.38l-33.7-17.73-33.7,17.73a3.41,3.41,0,0,1-3.54-.27,3.33,3.33,0,0,1-1.34-3.27l6.43-37.54-27.26-26.59a3.34,3.34,0,0,1,1.86-5.71l37.69-5.48,16.85-34.15a3.49,3.49,0,0,1,6,0l16.85,34.15,37.69,5.48a3.34,3.34,0,0,1,1.86,5.71L443.94,1270l6.42,37.54a3.31,3.31,0,0,1-1.34,3.27A3.21,3.21,0,0,1,447.05,1311.49Zm-35.27-25.25a3.56,3.56,0,0,1,1.57.38L442.6,1302,437,1269.42a3.25,3.25,0,0,1,1-3l23.66-23.07-32.7-4.76a3.36,3.36,0,0,1-2.55-1.83l-14.62-29.64-14.62,29.64a3.36,3.36,0,0,1-2.54,1.83l-32.71,4.76,23.66,23.07a3.25,3.25,0,0,1,1,3L381,1302l29.25-15.38A3.56,3.56,0,0,1,411.78,1286.24Z"/><path class="cls-2" d="M2247.79,115.11a3.49,3.49,0,0,1-1.57-.38L2212.51,97l-33.7,17.73a3.36,3.36,0,0,1-4.87-3.54l6.42-37.54-27.25-26.58a3.34,3.34,0,0,1,1.86-5.72l37.68-5.47L2209.5,1.73a3.49,3.49,0,0,1,6,0l16.85,34.15,37.68,5.47a3.34,3.34,0,0,1,1.86,5.72l-27.25,26.58,6.42,37.54a3.33,3.33,0,0,1-1.34,3.28A3.22,3.22,0,0,1,2247.79,115.11Zm-35.28-25.25a3.57,3.57,0,0,1,1.58.38l29.24,15.38-5.58-32.57a3.29,3.29,0,0,1,1-3L2262.38,47l-32.7-4.75a3.37,3.37,0,0,1-2.54-1.84l-14.63-29.64-14.62,29.64a3.37,3.37,0,0,1-2.54,1.84L2162.64,47l23.67,23.08a3.29,3.29,0,0,1,1,3l-5.58,32.57,29.24-15.38A3.56,3.56,0,0,1,2212.51,89.86Z"/><path class="cls-2" d="M1113.68,305H1015.1a3.42,3.42,0,0,1-3.43-3.43V203a3.42,3.42,0,0,1,3.43-3.43h98.58a3.42,3.42,0,0,1,3.42,3.43v98.57A3.42,3.42,0,0,1,1113.68,305Zm-95.15-6.86h91.72V206.4h-91.72Z"/><path class="cls-3" d="M1057.23,283.08a3.44,3.44,0,0,1-2.5-1.08l-27-28.65a3.43,3.43,0,0,1,5-4.7l24.17,25.69,43.89-58.26a3.43,3.43,0,1,1,5.47,4.13L1060,281.71a3.4,3.4,0,0,1-2.55,1.36Z"/><path class="cls-2" d="M3471.64,1357.43h-98.57a3.42,3.42,0,0,1-3.43-3.43v-98.58a3.42,3.42,0,0,1,3.43-3.42h98.57a3.42,3.42,0,0,1,3.43,3.42V1354A3.42,3.42,0,0,1,3471.64,1357.43Zm-95.14-6.86h91.71v-91.72H3376.5Z"/><path class="cls-3" d="M3415.2,1335.52a3.42,3.42,0,0,1-2.5-1.07l-27-28.65a3.43,3.43,0,1,1,5-4.7l24.18,25.69,43.88-58.26a3.43,3.43,0,1,1,5.48,4.13l-46.33,61.5a3.44,3.44,0,0,1-2.56,1.36Z"/><path class="cls-5" d="M3605.41,2370.43c108.16-194.58,184.17-442,215.87-701.26-404.82-169.44-1749-596.89-3693,159.91-45.26,177.79-12.55,378,83,541.35C385.21,2377,3591.76,2395,3605.41,2370.43Z"/><path class="cls-6" d="M2804.74,1422.2l-104.46,63.33c-37,22.45-77.08,48.81-88.33,90.61-11.75,43.66,12,92.17-4.09,134.44-9.94,26.18-33.27,44.57-56,61q-61.43,44.29-127.05,82.33c-51.89,30.08-111.74,65.46-120.42,124.81-6.87,47,22.17,94.34,12.89,140.92-11.79,59.2-76.64,88.53-131.44,113.83-48.67,22.48-96.94,50-129.55,92.56a170.29,170.29,0,0,0-28.26,56.26c199.69.51,397,.76,581,.69,16.27-43.37,20.16-91.42,10.32-136.72-10.14-46.74-33.87-89.32-49-134.71s-20.64-98,4.21-138.89c40.65-66.88,144.58-75.92,179.31-146,23.12-46.67,6.31-102.35,9.76-154.32,4.84-72.75,50.72-137.79,108.24-182.58,24.57-19.14,51.24-35,78.94-49.21Q2880.11,1430.4,2804.74,1422.2Z"/><path class="cls-6" d="M1565.77,2166.36c53.62-62.05,29.87-167.94,87.72-226.06,32.6-32.75,81.8-40.4,127-50.09,58.17-12.48,116-31.55,164.35-66.27s86.36-86.86,94-145.86c3.35-25.84.9-52.35,6.45-77.81,14.5-66.46,77.81-108.88,135.91-144.26l100-60.89q-123.65.35-255.38,7.15c-25.76,17.41-47.11,39.9-58.35,68.73-9.42,24.17-11,50.66-18.54,75.47-28.26,93.19-130,141-223.5,168.39s-196.82,49.83-258.64,125.06c-42.37,51.55-59.5,122.32-109.48,166.52-40.5,35.82-95.92,48.26-144.65,71.69-79.71,38.32-143.2,109.13-172.62,192.54-12.22,34.65-18.76,71.11-26.07,107.25,133.72.8,277.63,1.56,426.74,2.24.16-58.94,12.49-115.36,53.94-155.1C1516.82,2203.73,1545.62,2189.67,1565.77,2166.36Z"/><path class="cls-7" d="M3542.07,2365.57l3.77-1.1c-.11-.5-9-50.84,15.46-112.74,6.52-16.51,21.79-43.32,39.47-74.37,50.66-88.93,120-210.72,71.76-241.41-45-28.61-24.12-67.93,7.47-127.44,11.59-21.83,24.72-46.57,35.94-73.84,26.16-63.6,26.89-119.69,1.88-142.9-12.82-11.9-38.6-21.09-88.87,2.68-106.86,50.52-133.53,273-134.61,282.43h3.79c.27-2.29,27.48-229.57,132.12-279.05,38.23-18,67.55-19.13,84.79-3.15,24,22.22,22.94,76.76-2.62,138.93-11.14,27.06-24.22,51.7-35.75,73.44-31.4,59.15-54.08,101.87-6.44,132.16,45.52,29-22.82,149-72.73,236.58-17.76,31.2-33.1,58.12-39.73,74.9C3532.9,2313.72,3542,2365.05,3542.07,2365.57Z"/><path class="cls-7" d="M3550.42,2071.64l3.79,0c.24-2.28,24.36-229.24,95.67-394l-3.48-1.16C3574.85,1841.81,3550.65,2069.37,3550.42,2071.64Z"/><polygon class="cls-7" points="3595.14 1821.98 3658.38 1774.66 3656.31 1771.72 3597.84 1815.46 3579.32 1719.52 3575.58 1720.64 3595.14 1821.98"/><path class="cls-7" d="M3569.49,2112.94c12.28-19.94,84.54-125.3,85.27-126.35l-3.07-1.9c-.73,1.07-73.06,106.51-85.38,126.56Z"/><path class="cls-7" d="M3588.41,2366.09c27.49-34.75,61.12-65.35,93.67-95,47.86-43.54,93.08-84.66,112.31-133.23,8-20.21,9.19-32.41,3.71-38.41-7-7.65-22.58-3-39.11,2-15.6,4.68-31.73,9.56-36.84,1.85-5.34-8.05,13.75-31.18,33.95-55.66,32.74-39.69,73.48-89.07,51.78-118.9-35.61-49-126.69,19.3-127.62,20l2.1,2.91c.86-.66,88.85-66.47,122.34-20.47,20.07,27.59-19.58,75.65-51.44,114.27-23,27.89-41.19,49.92-34.37,60.2,6.48,9.69,23.91,4.51,40.81-.58,14.72-4.41,29.92-8.92,35.45-2.87,4.36,4.78,2.92,16.43-4.28,34.65-18.86,47.63-63.72,88.42-111.19,131.61-32.67,29.71-66.46,60.45-94.17,95.47Z"/><path class="cls-7" d="M3513.05,1752.32h.18a2.15,2.15,0,0,0,1.94-2.06c.17-7.29,3.6-179.51-32-242.43a1.81,1.81,0,0,0-2.58-.51,2,2,0,0,0-.8,2.64c35.11,62.11,31.55,238.88,31.53,240.66A1.64,1.64,0,0,0,3513.05,1752.32Z"/><path class="cls-7" d="M3456.15,1493.07c1.2-10.46,10.68-19,21.14-19s18,8.51,16.8,19-10.69,19-21.15,19S3455,1503.54,3456.15,1493.07Zm3.79,0a13.27,13.27,0,0,0,13.44,15.18,17.49,17.49,0,0,0,16.91-15.18,13.27,13.27,0,0,0-13.43-15.17A17.49,17.49,0,0,0,3459.94,1493.07Z"/><path class="cls-7" d="M3449.08,1554.72c1.2-10.46,10.68-19,21.14-19s18,8.51,16.8,19-10.69,19-21.15,19S3447.88,1565.18,3449.08,1554.72Zm3.79,0a13.28,13.28,0,0,0,13.44,15.18,17.49,17.49,0,0,0,16.91-15.18,13.27,13.27,0,0,0-13.43-15.17A17.49,17.49,0,0,0,3452.87,1554.72Z"/><path class="cls-7" d="M3510.07,1577c1.2-10.46,10.68-19,21.14-19s18,8.51,16.8,19-10.69,19-21.15,19S3508.87,1587.47,3510.07,1577Zm3.79,0a13.28,13.28,0,0,0,13.44,15.18,17.49,17.49,0,0,0,16.91-15.18,13.27,13.27,0,0,0-13.43-15.17A17.49,17.49,0,0,0,3513.86,1577Z"/><path class="cls-7" d="M3460.12,1619.69c1.2-10.46,10.68-19,21.15-19s18,8.51,16.79,19-10.68,19-21.14,19S3458.92,1630.15,3460.12,1619.69Zm3.8,0a13.28,13.28,0,0,0,13.43,15.18,17.5,17.5,0,0,0,16.92-15.18,13.27,13.27,0,0,0-13.44-15.17A17.48,17.48,0,0,0,3463.92,1619.69Z"/><path class="cls-6" d="M3210.66,2361.21c13.41-65.21-30.77-145.24.76-213.42s97.48,3,96.75-68.18-134.78-349.78,29.8-415,192.73,77.07,196.92,195.64-73.34,432.78-185.25,503.92Z"/><path class="cls-8" d="M3252.29,2351.46a2.36,2.36,0,0,0,1.07-.27c73.08-38.79,147.26-239.67,149.87-289.49,1.05-20.17-6.92-55.83-16.15-97.11-12.67-56.69-27-120.93-22.13-163.62a1.84,1.84,0,0,0-1.86-2.1,2.43,2.43,0,0,0-2.35,2.1c-5,43.38,9.47,108,22.2,165,9.17,41,17.08,76.41,16.06,96-2.49,47.77-77.09,248.3-147.29,285.57a2.28,2.28,0,0,0-1.13,2.86A1.83,1.83,0,0,0,3252.29,2351.46Z"/><path class="cls-8" d="M3372.77,1908.31a2.32,2.32,0,0,0,1.34-.45c29.54-21.09,46.8-118.91,47.53-123.06a1.85,1.85,0,0,0-1.72-2.23,2.29,2.29,0,0,0-2.45,2c-.17,1-17.65,100.08-45.56,120a2.2,2.2,0,0,0-.71,3A1.85,1.85,0,0,0,3372.77,1908.31Z"/><path class="cls-8" d="M3400.87,2063.93a2.35,2.35,0,0,0,1.58-.64,2.11,2.11,0,0,0,.29-3c-37.61-40.85-89.25-143.81-89.77-144.84a2,2,0,0,0-2.81-.69,2.26,2.26,0,0,0-1,2.89c.52,1,52.38,104.45,90.34,145.66A1.88,1.88,0,0,0,3400.87,2063.93Z"/><path class="cls-8" d="M3315.46,2278.84a2.36,2.36,0,0,0,1.7-.76,2.07,2.07,0,0,0,.07-3c-31.2-28.75-29.33-111.86-29.31-112.7a1.85,1.85,0,0,0-2.06-1.91,2.43,2.43,0,0,0-2.17,2.29c-.09,3.48-1.93,85.69,30.48,115.55A1.87,1.87,0,0,0,3315.46,2278.84Z"/><path class="cls-8" d="M3441.84,2094.43c2.94,51.88-50.12,152.66-50.12,152.66l24.76,29.64,53.89-56.32,18.38-121.53Z"/><path class="cls-7" d="M3359.37,2361.21h87.44s170.09-177.85,155-343.85-122-203-160.93-173.41-49.34,120.06-16.22,206,47.25,143.76-1.73,209S3359.37,2361.21,3359.37,2361.21Z"/><path class="cls-8" d="M3410.83,2364.8a2.35,2.35,0,0,0,1.59-.65c128.76-119.48,104.68-347.92,104.43-350.22a1.87,1.87,0,0,0-2.34-1.58,2.39,2.39,0,0,0-1.87,2.51c.26,2.27,24.08,228.53-102.91,346.38a2.12,2.12,0,0,0-.29,3A1.88,1.88,0,0,0,3410.83,2364.8Z"/><path class="cls-8" d="M3516.89,2086.16a2.36,2.36,0,0,0,1.56-.62,2.14,2.14,0,0,0,.34-3c-38.55-43.54-52.38-156.45-52.51-157.58a1.86,1.86,0,0,0-2.35-1.57,2.4,2.4,0,0,0-1.86,2.52c.56,4.69,14.12,115.22,53.4,159.6A1.89,1.89,0,0,0,3516.89,2086.16Z"/><path class="cls-8" d="M3516.07,2132.11a2.27,2.27,0,0,0,1.55-.62c23.19-20.8,47.19-65.48,48.2-67.37a1.93,1.93,0,0,0-.81-2.75,2.33,2.33,0,0,0-2.88,1.12c-.24.46-24.6,45.81-47.14,66a2.14,2.14,0,0,0-.34,3A1.85,1.85,0,0,0,3516.07,2132.11Z"/><path class="cls-8" d="M3467.73,2295.14a2.31,2.31,0,0,0,.88-.18,2.34,2.34,0,0,0,1.38-2.78c-8.53-25.85,6-90.15,6.13-90.8a1.84,1.84,0,0,0-1.58-2.32,2.47,2.47,0,0,0-2.54,1.85c-.61,2.68-14.91,66.09-6.05,93A1.84,1.84,0,0,0,3467.73,2295.14Z"/><polygon class="cls-8" points="3424.41 2362.7 3431.14 2278.22 3347.68 2359.73 3424.41 2362.7"/><path class="cls-9" d="M3227.46,2361.21h131.91s103.69-77.07,84.35-102.26-40,0-44.71-23.72,50.07-139.32-.16-140.8-63.73,0-79.47,72.63S3278.67,2315.27,3227.46,2361.21Z"/><path class="cls-8" d="M3304.12,2364.8a2.31,2.31,0,0,0,1.3-.42c56.63-38.76,63.88-146.9,64.16-151.48a1.79,1.79,0,0,0-2-2,2.41,2.41,0,0,0-2.24,2.2c-.07,1.11-7.4,110.48-62.06,147.9a2.22,2.22,0,0,0-.77,2.94A1.86,1.86,0,0,0,3304.12,2364.8Z"/><path class="cls-8" d="M3342.5,2314.41a2.31,2.31,0,0,0,.88-.18,2.34,2.34,0,0,0,1.38-2.78c-8.56-26-5-58.11-5-58.43a1.84,1.84,0,0,0-1.86-2.1,2.42,2.42,0,0,0-2.34,2.1c-.16,1.35-3.69,33.36,5.14,60.14A1.82,1.82,0,0,0,3342.5,2314.41Z"/><path class="cls-8" d="M3323.6,2350a1.61,1.61,0,0,0,.37,0c35.06-6,75.75-43.48,77.47-45.07a2,2,0,1,0-2.7-2.91c-.41.37-41.35,38.11-75,43.85a2.41,2.41,0,0,0-2,2.43A1.83,1.83,0,0,0,3323.6,2350Z"/><path class="cls-7" d="M556.12,1953.2a1.88,1.88,0,0,1-.53-.06,2.08,2.08,0,0,1-1.47-2.54c16.37-61.39,99.73-214.93,150.28-234.6a2.07,2.07,0,1,1,1.51,3.85c-49.55,19.28-131.59,171.06-147.79,231.82A2.07,2.07,0,0,1,556.12,1953.2Z"/><path class="cls-7" d="M645.73,1750.53a8,8,0,1,1,8-8A8,8,0,0,1,645.73,1750.53Zm0-11.9a3.88,3.88,0,1,0,3.88,3.88A3.88,3.88,0,0,0,645.73,1738.63Z"/><path class="cls-7" d="M720,1714.82a9.32,9.32,0,1,1,9.32-9.31A9.32,9.32,0,0,1,720,1714.82Zm0-14.49a5.18,5.18,0,1,0,5.18,5.18A5.19,5.19,0,0,0,720,1700.33Z"/><path class="cls-7" d="M678.08,1719a11.39,11.39,0,1,1,11.38-11.38A11.4,11.4,0,0,1,678.08,1719Zm0-18.63a7.25,7.25,0,1,0,7.24,7.25A7.26,7.26,0,0,0,678.08,1700.33Z"/><path class="cls-7" d="M688.68,1763.46a10.09,10.09,0,1,1,10.1-10.09A10.1,10.1,0,0,1,688.68,1763.46Zm0-16a6,6,0,1,0,6,5.95A6,6,0,0,0,688.68,1747.42Z"/><path class="cls-7" d="M666.43,1807.45a13.72,13.72,0,1,1,13.72-13.71A13.72,13.72,0,0,1,666.43,1807.45Zm0-23.29a9.58,9.58,0,1,0,9.58,9.58A9.59,9.59,0,0,0,666.43,1784.16Z"/><path class="cls-7" d="M613.91,1803.31a12.42,12.42,0,1,1,12.42-12.42A12.44,12.44,0,0,1,613.91,1803.31Zm0-20.7a8.28,8.28,0,1,0,8.28,8.28A8.29,8.29,0,0,0,613.91,1782.61Z"/><path class="cls-7" d="M628.66,1847.3a7,7,0,1,1,7-7A7,7,0,0,1,628.66,1847.3Zm0-9.84a2.85,2.85,0,1,0,2.84,2.85A2.86,2.86,0,0,0,628.66,1837.46Z"/><path class="cls-7" d="M371.88,2310.62l-3.67-.5c.08-.51,6.59-51.15-19.42-108.09-6.93-15.18-22.7-39.14-41-66.88-52.32-79.47-124-188.29-78.76-225.61,42.13-34.8,20.47-70.16-12.32-123.69-12-19.63-25.66-41.88-37.55-66.89-27.73-58.35-30.69-113.18-7.56-139.67,11.85-13.58,36.28-26.46,85.6-10.76,104.84,33.39,139.46,247.24,140.88,256.32l-3.65.57c-.35-2.21-35.69-220.68-138.35-253.38-37.5-11.92-65.75-8.56-81.69,9.68-22.18,25.38-19,78.63,8.11,135.66,11.81,24.83,25.38,47,37.36,66.54,32.58,53.2,56.13,91.62,11.52,128.46-42.64,35.22,28,142.45,79.49,220.74,18.34,27.87,34.19,51.93,41.24,67.36C378.62,2258.46,372,2310.1,371.88,2310.62Z"/><path class="cls-7" d="M352,2024l-3.65.54c-.32-2.2-32.67-220.83-107.9-371.41l3.3-1.65C319.25,1802.62,351.7,2021.84,352,2024Z"/><polygon class="cls-7" points="295.83 1787.81 233.08 1751 234.95 1747.81 292.96 1781.84 306.92 1685.09 310.56 1685.63 295.83 1787.81"/><path class="cls-7" d="M445.86,2346.66c-25.64-102.59-57.7-149.6-109-233-44.59-72.46-19.23-109,53.44-138.91s-76.94-233-12.83-294.94,138.92-57.7,162.43,36.33-27.78,228.69,44.88,211.59,94,70.53,38.47,164.56-124,254.33-124,254.33Z"/><path class="cls-8" d="M475.79,2356.08a3.49,3.49,0,0,1-.85-.12,3,3,0,0,1-2.05-3.74c45-151.93,10.47-527-17.11-626.7a3,3,0,0,1,2.09-3.69,2.9,2.9,0,0,1,3.7,2.09c27.73,100.18,62.33,477.15,17.11,630A3,3,0,0,1,475.79,2356.08Z"/><path class="cls-8" d="M497.16,2100.68a3,3,0,0,1-3-2.54c-8.33-53.1-65.13-128.28-65.69-129a3,3,0,0,1,.59-4.21,3,3,0,0,1,4.21.58c2.38,3.11,58.28,77.11,66.82,131.72a3,3,0,0,1-2.49,3.43A1.6,1.6,0,0,1,497.16,2100.68Z"/><path class="cls-8" d="M479,1842.08a3,3,0,0,1-2.73-1.72c-19.7-41.45-67.81-71.08-68.31-71.39a3,3,0,1,1,3.16-5.13c1.93,1.18,45.7,28.15,67.52,68,6.05-15,20.88-50.62,28.13-57.9a3,3,0,0,1,4.28,0,3.08,3.08,0,0,1,0,4.29c-6.66,6.63-23.37,47-29.25,62a3,3,0,0,1-2.71,1.91Z"/><path class="cls-7" d="M297.06,2358.23a2.09,2.09,0,0,1-.42-.05C294,2357.63,33.69,2300,0,2023.64A2.1,2.1,0,0,1,.56,2022a2.2,2.2,0,0,1,1.64-.65c2.59.16,259.94,17.61,335.89,135a2.07,2.07,0,0,1-3.48,2.26C263.79,2049.1,31.2,2027.75,4.44,2025.65,39,2296.84,294.9,2353.59,297.49,2354.14a2.07,2.07,0,0,1-.43,4.09Z"/><path class="cls-7" d="M292.45,2249.62a2,2,0,0,1-1.27-.44L25.44,2042.76a2.08,2.08,0,0,1-.36-2.91,2,2,0,0,1,2.9-.36l265.74,206.43a2.07,2.07,0,0,1-1.27,3.7Z"/><path class="cls-7" d="M78.32,2160.28a2.07,2.07,0,0,1-.24-4.13l85.53-9.75-14.91-67.87a2.06,2.06,0,0,1,1.58-2.46,2.09,2.09,0,0,1,2.46,1.59l15.41,70.1a2,2,0,0,1-.34,1.63,2,2,0,0,1-1.45.86l-87.81,10A.93.93,0,0,1,78.32,2160.28Z"/><path class="cls-7" d="M164.92,2227.24a2.07,2.07,0,0,1-.42-4.09L242.29,2207a2,2,0,0,1,2.45,1.6,2.06,2.06,0,0,1-1.61,2.44l-77.79,16.17A2,2,0,0,1,164.92,2227.24Z"/><path class="cls-6" d="M456.51,2349.61c50.83-212.59,154.82-344.3,279.6-390.52s119,175.62,50.83,180.24c-57.77,3.92-64.7-46.21-64.7-46.21s-134,104-157.13,254.17Z"/><path class="cls-8" d="M722.24,2092.65a3,3,0,0,1-3-2.61c-6.21-47.4,4.5-68,5-68.84a3.06,3.06,0,0,1,4.07-1.23,3,3,0,0,1,1.24,4.07c-.09.19-10.21,20-4.28,65.2a3,3,0,0,1-2.59,3.39A2.82,2.82,0,0,1,722.24,2092.65Z"/><path class="cls-8" d="M514.27,2349.16a2.83,2.83,0,0,1-.5,0,3,3,0,0,1-2.47-3.46c26.08-158,203.43-299.34,205.22-300.75a3,3,0,1,1,3.72,4.75c-1.76,1.39-177.3,141.3-203,297A3,3,0,0,1,514.27,2349.16Z"/><path class="cls-7" d="M552,2352.78c22.48-94,68.46-152.25,123.64-172.69s52.63,77.66,22.48,79.7c-25.55,1.73-28.61-20.43-28.61-20.43s-59.27,46-69.49,112.4Z"/><path class="cls-9" d="M503.88,2348.45c2.31-115.54,18.48-226.45-20.8-233.38s-71.63,48.52-76.25-16.18,9.24-157.13-37-187.17-108.61-13.86-97.05,60.08,50.83,122.47,39.28,141-83.19-16.18-85.5,27.73,113.23,210.27,113.23,210.27Z"/><path class="cls-8" d="M416.85,2353.77a3,3,0,0,1-3-2.42c-.68-3.51-69.45-351.71-83.15-402.65a3,3,0,0,1,5.83-1.55c13.73,51.12,82.55,399.52,83.25,403a3,3,0,0,1-2.37,3.56C417.23,2353.75,417,2353.77,416.85,2353.77Z"/><path class="cls-8" d="M387.57,2211.28a3,3,0,0,1-1.93-.7c-28.34-23.87-89.72-37-90.34-37.12a3,3,0,1,1,1.23-5.89c2.59.54,63.48,13.54,93,38.39a3,3,0,0,1,.38,4.24A3,3,0,0,1,387.57,2211.28Z"/><path class="cls-8" d="M400.66,2260.57a2.57,2.57,0,0,1-.73-.1,3,3,0,0,1-2.19-3.64c10.12-40.44,68.47-95.42,71-97.73a2.93,2.93,0,0,1,4.24.14,3,3,0,0,1-.14,4.24c-.59.56-59.53,56.09-69.23,94.8A3,3,0,0,1,400.66,2260.57Z"/><path class="cls-8" d="M350.59,2025.64a3,3,0,0,1-2.8-1.9c-4.75-11.91-32.48-32.51-42.77-39.43a3,3,0,0,1,3.35-5c1.57,1.06,38.6,26.13,45,42.21a3,3,0,0,1-2.8,4.11Z"/><path class="cls-8" d="M361.37,2078a5.29,5.29,0,0,1-.56-.05,3,3,0,0,1-2.4-3.53c4.73-24.31,25.13-51,26-52.11a3,3,0,0,1,4.75,3.67c-.19.26-20.41,26.69-24.83,49.57A3,3,0,0,1,361.37,2078Z"/><path class="cls-8" d="M499.3,2053.32a2.57,2.57,0,0,1-1-.18,3,3,0,0,1-1.82-3.84c12.95-36,64.21-80.61,66.38-82.5a3,3,0,1,1,3.95,4.57c-.51.45-52.25,45.5-64.68,80A3,3,0,0,1,499.3,2053.32Z"/><path class="cls-10" d="M3704.7,2394.49H75.64c-12.1,0-21.91-12.34-21.91-27.55s9.81-27.55,21.91-27.55H3704.7c12.1,0,21.9,12.33,21.9,27.55S3716.8,2394.49,3704.7,2394.49Z"/><path class="cls-11" d="M992.13,656.51c58-21.16,99-92.85,94.9-170.69s-30.72,28.68-55.3,57.36-90.13,63.49-133.14,61.44S992.13,656.51,992.13,656.51Z"/><path class="cls-11" d="M676.79,683.82c-58-21.16-99-92.85-94.91-170.69s30.73,28.68,55.31,57.36S727.31,634,770.32,631.93,676.79,683.82,676.79,683.82Z"/><path class="cls-4" d="M675.33,724.79s-101.05-60.08-213-38.23S582.47,850.42,672.59,825.84Z"/><path class="cls-12" d="M671.23,825.84l1.6-59.32c-1.05-6.81-2.83-12-5.7-14.42-16.38-13.66-116.07-42.33-178.88-43.7-30.72-.67-46.29,5.86-54.3,12.7C456.38,769.11,603.68,844.26,671.23,825.84Z"/><path class="cls-4" d="M992.13,656.51s374.15-10.92,453.35-8.19,352.3-32.77,589.9-19.12,300.42,30,439.7,13.66,415.12-24.58,488.86,68.27,68.27,174.79,68.27,213,10.93,417.84,24.58,469.73,68.28,218.49,60.08,256.72-38.23,10.93-57.35-19.12-68.27-232.13-68.27-232.13,10.92,232.13,35.5,284,24.58,87.4,24.58,210.29-38.24,438.34-60.08,446.53-133.82-1.37-133.82-1.37,4.09-80.56,39.6-102.41c26.51-16.32-9.56-337.28-9.56-337.28s-114.71-147.48-131.09-177.52l-21.85,8.19s43.7,106.51,43.7,125.63-73.74,76.47-87.4,117.43-50.52,244.43-58.72,258.09-41,23.21-41,23.21l4.1,84.66H2442.31s25.94-77.83,39.6-102.41,113.34-331.82,113.34-348.21S2461.42,1697,2461.42,1697l-120.16-21.85s-409.66,237.6-816.58,71c0,0,2.73,131.09-16.39,207.56s-38.23,177.51-38.23,237.6-10.93,142-24.58,147.47-139.28,0-139.28,0l30-76.47s-5.47-264.91-5.47-292.22-38.23-114.7-38.23-114.7-117.43,406.92-122.9,420.58-43.69,27.31-43.69,27.31l2.73,35.5H997.59s16.38-71,54.62-90.12,109.24-559.86,109.24-559.86-142-87.4-180.25-174.79-54.62-256.72-95.58-303.15S992.13,656.51,992.13,656.51Z"/><path class="cls-10" d="M1295.27,1900.51a4.09,4.09,0,0,1-4.1-4.09v-60.11c0-21.79,6.24-99.24,7.84-118.83-59.51-1.15-137.92-24.48-138.74-24.71a4.11,4.11,0,0,1-2.73-5.12,4.21,4.21,0,0,1,5.1-2.75c.8.26,82.06,24.42,140.82,24.42h4.45l-.37,4.45c-.08,1-8.18,98.41-8.18,122.54v60.11A4.09,4.09,0,0,1,1295.27,1900.51Z"/><path class="cls-10" d="M1524.67,1750.28a4.09,4.09,0,0,1-4.09-4.09c0-52.62,11.28-82.41,31.76-136.47l6.74-17.89c12.37-33,48.72-146.45-2.31-223a4.13,4.13,0,0,1,1.14-5.7,4.07,4.07,0,0,1,5.68,1.15c53.19,79.79,15.87,196.51,3.17,230.4L1560,1612.6c-20.15,53.19-31.24,82.48-31.24,133.59A4.09,4.09,0,0,1,1524.67,1750.28Z"/><path class="cls-13" d="M3032.21,924.16c0-38.24,5.47-120.17-68.27-213-67.35-84.8-303-85.27-449.46-72.25,21.72,23.35,36.9,54.53,39.8,96.83,13.66,199.37,30,232.14,128.36,284s161.13-24.58,188.44-10.92,73.74,106.51,79.2,169.32,41,237.6,41,237.6l1.3,7.51c-.87-14.75-1.3-23.89-1.3-23.89s49.16,202.09,68.27,232.13,49.16,57.36,57.35,19.12-46.42-204.83-60.08-256.72S3032.21,962.39,3032.21,924.16Z"/><path class="cls-13" d="M2035.38,629.2c-237.6-13.65-510.7,21.85-589.9,19.12-41.3-1.42-162.78.87-269.61,3.38-.92,115.89,43,230.29,103,313.42,71,98.32,207.55,196.64,382.34,131.09s234.87-289.49,382.35-256.72C2158.44,865,2286,754.8,2305.91,648,2240.18,644.62,2163.08,636.54,2035.38,629.2Z"/><path class="cls-13" d="M1978,1178.14c62.36-65.19,135.19-172.05,204.83-163.86s122.9,57.35,81.93,147.48-188.44,249.89-249.89,237.6S1887.91,1272.36,1978,1178.14Z"/><path class="cls-13" d="M1449.57,1415.74c-13.56,61-118.8,12.29-106.51-45.06S1466,1342,1449.57,1415.74Z"/><path class="cls-13" d="M1334.87,1510c41.78,0,24.58,77.84-12.29,73.74S1298,1510,1334.87,1510Z"/><path class="cls-14" d="M2146.26,1756.08c7.21-27.14,12-53,12-74.06,0-90.13-266.28-77.84-421.94-41s-102.42-49.16-139.29-77.83-94.22,8.19-94.22,65.54-45.06,180.25-102.41,245.8c-56.93,65.06,19.31,242.94,72.52,269.62,6-58.13,20.62-131.49,35.35-190.42,19.12-76.47,16.39-207.56,16.39-207.56C1756.41,1841.07,1988.92,1804.84,2146.26,1756.08Z"/><path class="cls-10" d="M1127,2317.35l-106.5-35.5c-15.69,26.44-22.94,57-22.94,57h131.09Z"/><path class="cls-10" d="M1445.48,2338.83c2.29-.92,4.47-4.61,6.57-9.39l-122.86-49.14-23,58.53S1431.82,2344.3,1445.48,2338.83Z"/><path class="cls-10" d="M2594.28,2318.9l-131.1-38.73c-10.86,28.64-20.87,58.66-20.87,58.66h152.94Z"/><path class="cls-13" d="M2756.38,1721.62c16.38,30,131.09,177.52,131.09,177.52s15.19,135.23,18.6,234.6c22-50.76,40-174.88,22.36-245.53-21.84-87.39,49.16-273.1-43.69-338.65s-240.33-27.31-240.33-27.31l103.6,202.5Z"/><path class="cls-10" d="M2857.43,2338.83s112,9.56,133.82,1.37c3.33-1.25,7.07-10.32,11-24.1l-137.37-23.89A267.86,267.86,0,0,0,2857.43,2338.83Z"/><path class="cls-12" d="M2548.82,1779c-122.87-2.79-210.29-57.35-221.22-103.78s147.48-289.49,262.18-259.45,166.6,305.88,166.6,305.88S2669,1781.7,2548.82,1779Z"/><path class="cls-4" d="M1035.82,820.38s65.55,8.19,112,0c37.65-6.65,147.47-60.09,98.31-120.17s-226.67-30-226.67-30S953.89,593.7,861,582.78s-196.64,101-196.64,101C607.05,804,699.91,954.2,683.52,1063.44a239.59,239.59,0,0,0-2.25,48.88c117.94-1.77,224.34-11.59,326.6,14.57,9.67-46.13,10.48-90.33,11.57-109.88C1022.17,967.85,1035.82,820.38,1035.82,820.38Z"/><path class="cls-12" d="M1147.8,820.38c32.78-5.79,114-42.93,102-92.1-118.8-81.79-226.27,5.92-226.27,42.25,0,21.14,7.38,38.69,13.69,50C1044.36,821.38,1104.17,828.07,1147.8,820.38Z"/><path class="cls-13" d="M978.8,1120.48c-25.41-96.81-111.91-152-105.82-243.43,5-74.53,92.91-181.13,130.75-223.57-24.92-23.1-76.22-63-141.67-70.7-92.85-10.93-196.63,101-196.63,101-2.25,4.72-3.89,9.56-5.69,14.36,31.6,44.35,129.46,150,141.55,193.2C813.73,935.81,723,1075.65,698.7,1112,798.69,1109.88,890.56,1103.75,978.8,1120.48Z"/><path class="cls-12" d="M681.27,1112.32c4.91,88,63,158.68,188,158.68,88.82,0,124-74.27,138.64-144.11C905.61,1100.73,799.21,1110.55,681.27,1112.32Z"/><path class="cls-10" d="M915,1266.22a4.12,4.12,0,0,1-3.92-2.91,4.08,4.08,0,0,1,2.72-5.09c.66-.23,65.6-21.13,85.28-111.67,20.18-92.81,32.56-324.07,32.68-326.41l.25-4.61,4.55.8c1.8.29,181.09,30.15,212.49-75.62,5.07-17.16,3-30.44-6.39-40.68-42.64-46.6-216.52-11.84-218.28-11.52a4.08,4.08,0,1,1-1.63-8c7.33-1.57,180.21-36,226,14,11.33,12.36,14.08,28.68,8.19,48.52-30.9,104.3-187.7,86.38-217.2,82.12-1.85,33-13.87,237-32.61,323.15-20.75,95.47-88,116.88-90.89,117.78A5.33,5.33,0,0,1,915,1266.22Z"/><path class="cls-8" d="M958.65,890c5.53-15.64,4.83-30.16-1.57-32.42s-16.07,8.58-21.6,24.22-4.83,30.16,1.57,32.42S953.12,905.66,958.65,890Z"/><path class="cls-8" d="M717.34,890c-5.54-15.64-4.83-30.16,1.57-32.42s16.07,8.58,21.6,24.22,4.83,30.16-1.57,32.42S722.87,905.66,717.34,890Z"/><circle class="cls-8" cx="885.79" cy="1189.92" r="7.68"/><circle class="cls-8" cx="777.74" cy="1189.41" r="6.66"/><path class="cls-12" d="M2694.91,1845.88a32.78,32.78,0,0,1-31.49-23.78l-24.58-86a32.77,32.77,0,1,1,63-18l24.58,86a32.8,32.8,0,0,1-22.5,40.51A33.61,33.61,0,0,1,2694.91,1845.88Z"/><path class="cls-12" d="M2535.18,1872.51h-.66a32.79,32.79,0,0,1-32.13-33.41l2.05-104.47a32.78,32.78,0,1,1,65.54,1.28l-2,104.47A32.78,32.78,0,0,1,2535.18,1872.51Z"/><path class="cls-12" d="M2375.38,1831.54a32.76,32.76,0,0,1-30.45-44.83l43-108.56a32.77,32.77,0,1,1,60.94,24.13l-43,108.56A32.8,32.8,0,0,1,2375.38,1831.54Z"/><path class="cls-12" d="M1843.16,1033.36,1829.43,1109s-57.48,6.14-90.22-19.67l15.87-67.22,30.4-30.35Z"/><path class="cls-10" d="M1925.84,914.38a2.37,2.37,0,0,1-1.3-4.33c.35-.24,34.5-23.79,32.62-42.36-1.93-19-28.45-40.48-28.72-40.69a2.37,2.37,0,0,1,3-3.7c1.16.93,28.34,23,30.47,43.91,2.17,21.36-33.16,45.73-34.66,46.76A2.32,2.32,0,0,1,1925.84,914.38Z"/><path class="cls-8" d="M1836.33,1074.07l9.9-31.82-26.55-35.59S1799.54,1033.82,1836.33,1074.07Z"/><path class="cls-12" d="M1938.11,849c5.33,17.56-.29,44.92,2.9,80.91s28.06,114.25-51,126.84c-69.8,11.12-108.74-79-108.74-79l-47.52-89.95c-10.56-53.05,25-93.39,78.34-102.11,1.23-.2,2.48-.38,3.75-.55C1920.25,771.7,1938.11,849,1938.11,849Z"/><path class="cls-10" d="M1790,783.65a128.08,128.08,0,0,0-33,13.57c-22.24,13.13-43.93,33.46-53.06,57.8-11.31,30.14-6.71,63.47,2.19,94a189.86,189.86,0,0,0,19,43.83c6.89,11.59,23.93,23.46,23.47,37.9-.12,3.71-4.28,15.24,0,17.76,5.49,3.25,5.59-3.08,11.3-14.06s-1.9,5.76,3.65,5,80.12-52.39,83.5-65.78-14.89-56-14.89-56,32.4,53.19,34.64,31.7c5-48,85.16-78.45,70.92-127.73-1.11-3.83-10.13-9-13-11.17a157.13,157.13,0,0,0-38.74-21C1856,778.32,1821.41,775.53,1790,783.65Z"/><path class="cls-12" d="M1938,924.56s22.44,20.73,22.48,29.24-13.41,25.31-13.41,25.31l-23.34-21.87Z"/><path class="cls-8" d="M1919.9,925.69c-.3-5.35,1.22-9.8,3.39-9.92s4.19,4.12,4.49,9.48-1.22,9.8-3.39,9.92S1920.21,931.05,1919.9,925.69Z"/><path class="cls-4" d="M1933.81,1014.51c5.08-14.08-9-12.92-16.9-19.84s-15.59-16-26.61-8.73c-17.59,11.69-8.41,23.31,7.33,31.24S1929.61,1026.17,1933.81,1014.51Z"/><path class="cls-8" d="M1904.25,912.11a2.46,2.46,0,0,1-.9-4.31c15.62-12.54,28.2-8,28.72-7.77a2.45,2.45,0,0,1,1.43,3.18,2.53,2.53,0,0,1-3.17,1.44c-.46-.19-10.61-3.66-23.89,7A2.43,2.43,0,0,1,1904.25,912.11Z"/><path class="cls-15" d="M1927.51,951a4.8,4.8,0,0,1,1.47,3.76c-.14,3.71-4.77,7-7.63,8.73-6.5,3.83-14.74,3.51-21.92,1.85-4.36-1-8.61-3.19-11.25-6.8-2.92-4-3.12-10.29-.06-14.27,4.23-5.49,10.64-3.18,16.07-1a94.78,94.78,0,0,0,14.63,4.42C1921.51,948.26,1925.41,949,1927.51,951Z"/><path class="cls-4" d="M1796.9,895a1.19,1.19,0,0,1-.07-2.37c52.25-3.91,98.4-37.4,122.06-64.89a1.19,1.19,0,0,1,1.67-.12,1.18,1.18,0,0,1,.12,1.67C1896.74,857.15,1850,891.06,1797,895Z"/><path class="cls-12" d="M1873.68,941.52s-19.24-31.16-41.94-28.36-35.74,47.46-15.15,61.36,51.68,2.34,51.68,2.34Z"/><path class="cls-8" d="M1825.37,965.94a.85.85,0,0,1-.39-.17c-.13-.09-13.32-10-5.21-25.76,3.33-6.51,7-10.15,11.57-11.47,5.71-1.65,12.52.33,23.49,6.82a.95.95,0,0,1-1,1.63c-10.34-6.12-16.92-8.1-22-6.63-4,1.16-7.33,4.5-10.41,10.51-7.36,14.34,4.15,23,4.64,23.38a.94.94,0,0,1,.21,1.32A1,1,0,0,1,1825.37,965.94Z"/><polygon class="cls-16" points="1787.78 2082.28 1870.83 1894.91 1687.51 1907.07 1613.57 1908.08 1570.02 2032.66 1787.78 2082.28"/><path class="cls-10" d="M1650.37,2155.21a1.9,1.9,0,0,1-.77-.16,2,2,0,0,1-1.1-2.64c1-2.46,101.57-246,129.58-334.08,22.33-70.18,26.35-116.25,11.94-136.92-5.45-7.82-13.38-11.87-24.28-12.36H1765c-21,0-78,39-138.35,80.18-69.91,47.75-142.23,97.17-172.87,96.06-6.65-.23-12.33-3.26-16.86-9-32.24-40.78,1.35-211,2.79-218.27a2,2,0,0,1,2.39-1.59,2,2,0,0,1,1.59,2.39c-.35,1.75-34.68,175.63-3.59,215,3.82,4.83,8.33,7.28,13.83,7.47.29,0,.6,0,.9,0,29.91,0,104-50.64,169.53-95.38,60.89-41.58,118.43-80.89,140.73-80.89.27,0,.54,0,.81,0,12.06.55,21.28,5.29,27.42,14.08,15.17,21.76,11.33,69-11.41,140.49-28,88.18-128.68,331.93-129.69,334.39A2.06,2.06,0,0,1,1650.37,2155.21Z"/><path class="cls-17" d="M1577.45,1983s-111.06,321.56-93.18,363.26c4,9.46,405.13,24.31,421.33-8.1s-144.49-163.4-144.49-163.4L1807,2045.15Z"/><path class="cls-4" d="M1483.07,2319.56c-1.22,12.33-1,21.64,1.2,26.73,4,9.46,405.13,24.31,421.33-8.1,1.62-3.23,1.41-7.47-.15-12.43C1772.3,2345.23,1540.06,2325,1483.07,2319.56Z"/><path class="cls-10" d="M1796.22,2074.86a1.85,1.85,0,0,1-.52-.06L1567.47,2014a2,2,0,0,1-1.43-2.48,2.06,2.06,0,0,1,2.48-1.45l228.22,60.77a2,2,0,0,1-.52,4Z"/><path class="cls-10" d="M1635.18,2328.4a2,2,0,0,1-2-2c-1-32.33,61.23-265.17,63.88-275.06a2,2,0,1,1,3.91,1c-.65,2.42-64.73,242.15-63.73,273.89a2,2,0,0,1-2,2.09Z"/><path class="cls-12" d="M1525.29,1625.25c-31.79,0-64.31-12.73-96.89-38-90.19-69.82-13.69-237.46,66.37-365.79l110,68.6c-47.27,75.92-86.63,166.85-87.9,201.14,3.82,2.55,6.9,4.47,6.92,4.47a18.37,18.37,0,0,0-6.55,2.21c0,.06,0,.11,0,.18a.35.35,0,0,0,0-.16c-4.74,2.64-7.83,6.82-9.41,8.94L1612,1584.08c-5.87,7.93-28.31,34.24-70.46,40.06A118.93,118.93,0,0,1,1525.29,1625.25Z"/><path class="cls-12" d="M2193.06,1628.55c-92.94,0-197.42-115.69-269.08-213.4l130.66-95.87,0,0h0c45,61.28,104.59,123.64,135.21,142.87,23-20.54,61.71-78.52,86.74-131.55l146.54,69.15c-39.7,84.13-122,225.72-226.93,228.73C2195.18,1628.54,2194.12,1628.55,2193.06,1628.55Z"/><path class="cls-18" d="M1878.6,1604.91s78.32,276.84-25,331.53-234,2-276.5,6.07-94.19,21.27-136.73-15.19-114.45-126.6,70.9-375.08Z"/><path class="cls-19" d="M1830.32,1110s169.81,38.49,226.53,127.62,83.73,129.64,83.73,129.64S2092,1478,1973.13,1507.67l-33.76-41.86s-29.71,27-51.32,27c0,0-20.26,67.52-9.45,112.09,0,0-230.93,68.87-367.32-52.67l23.29-160.7L1411,1354.06s91.15-212.69,192.43-241c99.73-27.92,135.72-21.27,135.72-21.27Z"/><path class="cls-18" d="M2125.88,2200.18l-208.28-89.95c42-97.2,86.58-209.23,117.13-294.86-55.08,32.05-121.24,76.79-179.61,122.94L1714.33,1760.4c142.69-113,339.06-242.05,464.15-215.37,46.68,10,84.28,38.25,105.88,79.66C2307.47,1669,2333.65,1719.15,2125.88,2200.18Z"/><path class="cls-10" d="M2038,2155.21a2,2,0,0,1-.78-.16,2,2,0,0,1-1.1-2.64c1-2.46,101.58-246,129.59-334.08,22.33-70.18,26.35-116.25,11.94-136.92-5.45-7.82-13.39-11.87-24.29-12.36h-.71c-20.95,0-78,39-138.34,80.18-69.92,47.75-142.23,97.17-172.87,96.06-6.66-.23-12.33-3.26-16.86-9-32.24-40.78,1.34-211,2.79-218.27a2,2,0,0,1,2.38-1.59,2,2,0,0,1,1.59,2.39c-.35,1.75-34.67,175.63-3.58,215,3.81,4.83,8.33,7.28,13.82,7.47.29,0,.6,0,.9,0,29.91,0,104-50.64,169.54-95.38,60.88-41.58,118.42-80.89,140.73-80.89.27,0,.54,0,.8,0,12.06.55,21.29,5.29,27.42,14.08,15.17,21.76,11.33,69-11.4,140.49-28.06,88.18-128.68,331.93-129.7,334.39A2,2,0,0,1,2038,2155.21Z"/><path class="cls-10" d="M2033.89,1817.6a2.08,2.08,0,0,1-1.65-.83,2.06,2.06,0,0,1,.46-2.84l95.89-68.87a2,2,0,1,1,2.37,3.29l-95.88,68.87A2,2,0,0,1,2033.89,1817.6Z"/><path class="cls-10" d="M2090.47,1787.08c-5.08,0-9.34-1.09-12.09-3.83a2,2,0,0,1,2.88-2.88c9.06,9.16,46.24-6.92,59.75-13.87a2.06,2.06,0,0,1,2.72.89,2,2,0,0,1-.88,2.72C2138.73,1772.23,2109.14,1787.08,2090.47,1787.08Z"/><path class="cls-18" d="M1532,1583l-28.36-20.76c12.84-16.18,292.63-393.36,388.42-435l34.94,14.18C1853.65,1173.27,1618.11,1474.53,1532,1583Z"/><path class="cls-18" d="M1753.23,1642c-5-14.35-123.23-347.38-104.88-541.11l32.74-5.41c-17.68,186.68,101.55,532.41,102.75,535.86Z"/><path class="cls-11" d="M1965,1983s-111,321.56-93.18,363.26c4.05,9.46,405.13,24.31,421.34-8.1s-144.5-163.4-144.5-163.4l45.92-129.64Z"/><path class="cls-4" d="M1870.65,2319.56c-1.22,12.33-1,21.64,1.19,26.73,4.05,9.46,405.13,24.31,421.34-8.1,1.61-3.23,1.41-7.47-.16-12.43C2159.88,2345.23,1927.64,2325,1870.65,2319.56Z"/><path class="cls-10" d="M2183.79,2074.86a1.89,1.89,0,0,1-.52-.06L1955.05,2014a2,2,0,0,1-1.44-2.48,2.07,2.07,0,0,1,2.48-1.45l228.23,60.77a2,2,0,0,1-.53,4Z"/><path class="cls-10" d="M2022.75,2328.4a2,2,0,0,1-2-2c-1-32.33,61.23-265.17,63.88-275.06a2,2,0,1,1,3.91,1c-.65,2.42-64.74,242.15-63.74,273.89a2,2,0,0,1-2,2.09Z"/><path class="cls-10" d="M1901.21,1712.6a2,2,0,0,1-2-1.66l-12.76-69.66c-256,79-401.44-47.4-402.87-48.71a2,2,0,0,1-.15-2.85,2,2,0,0,1,2.84-.16c1.44,1.27,146,126.9,401.16,47.18a2,2,0,0,1,1.65.19,2,2,0,0,1,1,1.37l13.16,71.91a2,2,0,0,1-1.63,2.36A2.1,2.1,0,0,1,1901.21,1712.6Z"/><path class="cls-10" d="M1583.18,1937.45a2.05,2.05,0,0,1-1.79-1.08c-60.56-114.07,25.45-282.76,26.32-284.46a2.1,2.1,0,0,1,2.74-.87,2,2,0,0,1,.87,2.74c-.87,1.68-85.92,168.51-26.35,280.7a2,2,0,0,1-1.79,3Z"/><path class="cls-10" d="M1939.37,1467.83a2.06,2.06,0,0,1-1.75-1L1898.46,1402a2,2,0,0,1,.69-2.79,2.08,2.08,0,0,1,2.79.7l39.17,64.82a2,2,0,0,1-1.74,3.07Z"/><path class="cls-10" d="M1532.54,1396.6a1.9,1.9,0,0,1-.46,0,2,2,0,0,1-1.52-2.43l23.3-101.29a2,2,0,0,1,4,.92L1534.52,1395A2,2,0,0,1,1532.54,1396.6Z"/><path class="cls-10" d="M1701.35,1893.57a2.08,2.08,0,0,1-.82-.18l-78.32-35.11a2,2,0,0,1-1.17-1.52c-10.75-63.08,3.89-153.7,4-154.62a2,2,0,0,1,2-1.69h.05l155.3,4a2,2,0,0,1,1.58.82,2,2,0,0,1,.31,1.76c-13.23,46.34-.08,150.74.07,151.8a2,2,0,0,1-1.25,2.13l-81,32.41A2.06,2.06,0,0,1,1701.35,1893.57Zm-76.5-38.55,76.55,34.32,78.78-31.51c-1.66-13.48-12.08-103.87-.43-149.34l-150.94-3.94C1626.86,1717.33,1615.36,1797.49,1624.85,1855Z"/><path class="cls-10" d="M1556,1684.92a2.06,2.06,0,0,0-1.43-1.07l-114.91-22.39-2,3.75,113.61,22.14c-19,42.88-23.69,133.77-24.3,147.35l-82.9,18-54.54-36.33-.1,4.8,53.1,35.39a2.13,2.13,0,0,0,1.55.29l85.28-18.55a2,2,0,0,0,1.59-1.9c0-1.06,4.35-106.22,25.07-149.71A2.08,2.08,0,0,0,1556,1684.92Z"/><rect class="cls-20" x="1399.87" y="1946.57" width="482.11" height="58.74"/><polygon class="cls-20" points="1777.31 1999.23 1843.48 1999.23 1928.56 2350.35 1862.39 2350.35 1777.31 1999.23"/><polygon class="cls-20" points="1504.53 1999.23 1438.35 1999.23 1353.28 2350.35 1419.45 2350.35 1504.53 1999.23"/><rect class="cls-20" x="1432.95" y="2146.43" width="397.03" height="27.01"/><path class="cls-10" d="M1738.15,977.29c-31.4-17.22-50.64-19.24-69.88-12.15s-60.77,43.55-58.75,81,19.25,72.93-36.46,78-108.37,1-124.58,57.73,100.27,63.81,95.21,90.14,65.83,49.63,89.13,34.44,53.68-48.62,80-47.6,59.76-35.45,58.74-69.89-51.65-91.15-63.8-124.58,34.43-63.8,34.43-63.8Z"/><path class="cls-10" d="M1935.31,1323.35a2,2,0,0,1-1.09-.32,2,2,0,0,1-.61-2.8c28.31-44.47,93.24-81.33,93.89-81.71a2,2,0,1,1,2,3.55c-.65.34-64.71,36.73-92.47,80.34A2,2,0,0,1,1935.31,1323.35Z"/><ellipse class="cls-11" cx="1804.7" cy="863.39" rx="233.98" ry="71.2" transform="translate(-195.59 898.3) rotate(-26.57)"/><ellipse class="cls-17" cx="1789.72" cy="839.03" rx="134.89" ry="55.06" transform="translate(-185.35 917.5) rotate(-27.39)"/><polygon class="cls-17" points="1909.87 777.97 1887.39 734.58 1647.86 858.7 1669.86 901.14 1803.51 865.17 1909.87 777.97"/><ellipse class="cls-11" cx="1767.73" cy="796.59" rx="134.89" ry="55.06" transform="translate(-168.29 902.62) rotate(-27.39)"/><path class="cls-10" d="M1779.67,811.69a2.05,2.05,0,0,1-1.44-.58,2.08,2.08,0,0,1,0-2.88l32.41-32.41a2,2,0,0,1,2.88,2.88l-32.41,32.41A2,2,0,0,1,1779.67,811.69Z"/><path class="cls-10" d="M1749.29,815.75a2,2,0,0,1-1.41-3.49l42-40.51a2,2,0,0,1,2.86,0,2,2,0,0,1,0,2.86l-42,40.52A2.05,2.05,0,0,1,1749.29,815.75Z"/><path class="cls-10" d="M1832.84,789.92a.93.93,0,0,1-.23,0l-69.38-8.1a2,2,0,0,1,.47-4l69.38,8.1a2,2,0,0,1-.24,4Z"/><path class="cls-10" d="M1812.59,804.6a2.43,2.43,0,0,1-.38,0L1758,794.44a2,2,0,0,1-1.61-2.37,2.07,2.07,0,0,1,2.37-1.61L1813,800.58a2,2,0,0,1-.38,4Z"/><path class="cls-12" d="M2523,1320.4a18.82,18.82,0,0,1-5.74,6.92l-92.43,69.28a19.16,19.16,0,1,1-23-30.67l92.44-69.28A19.16,19.16,0,0,1,2523,1320.4Z"/><path class="cls-8" d="M2431.56,1228l0,0-29.8,28.43a1.29,1.29,0,0,1-1.35.26l-4.57-1.87a1.27,1.27,0,0,1-.69-1.65,1.25,1.25,0,0,1,1.65-.7l3.81,1.56,29.17-27.84a1.27,1.27,0,0,1,1.82,1.77Z"/><path class="cls-12" d="M2471.25,1200.29a25.66,25.66,0,0,1-2.74,3.1l-84,80.47a25.56,25.56,0,1,1-35.39-36.9l83.95-80.48a25.56,25.56,0,0,1,38.13,33.81Z"/><path class="cls-12" d="M2528.17,1280.48a24.92,24.92,0,0,1-2.74,3.1l-83.95,80.48a25.57,25.57,0,0,1-35.39-36.91l83.95-80.48a25.56,25.56,0,0,1,38.13,33.81Z"/><path class="cls-12" d="M2518.92,1235.22a26.47,26.47,0,0,1-4.32,4.48l-106,86.15a25.57,25.57,0,0,1-32.24-39.69l106-86.14a25.57,25.57,0,0,1,36.56,35.2Z"/><path class="cls-12" d="M2276.19,1362.15c4.64-35.91,6.36-56.34,4.61-67.23s11.67-75.41,13-103.66c1.2-26.15,22.66-39.48,38.56-10.94,14.86,26.65-8.36,86.57-1.39,80.71,21.51-18.08,29.56-24.45,29.56-24.45l75.28,96.37,1.69,28.28-46.65,37.36Z"/><path class="cls-12" d="M2270.57,1386.32s12.87-59.53,27.9-70.4c42.65-30.86,65-37.45,65-37.45s113,62.73,98.34,85.16c-13.8,21.1-124.48,95.71-124.48,95.71Z"/><path class="cls-8" d="M2370.88,1269.6a1,1,0,0,1,.27.62,1,1,0,0,1-.94,1.14l-15.43,1.41a1,1,0,0,1-1.14-1,1.06,1.06,0,0,1,1-1.15l15.42-1.4A1,1,0,0,1,2370.88,1269.6Z"/><path class="cls-8" d="M2360.35,1279.37a1.07,1.07,0,0,0,.6.32,1.05,1.05,0,0,0,1.21-.86l2.55-15.28a1,1,0,0,0-2.07-.35l-2.55,15.28A1,1,0,0,0,2360.35,1279.37Z"/><path class="cls-8" d="M2395.84,1307.24a1.09,1.09,0,0,1,.27.62,1.06,1.06,0,0,1-1,1.15l-15.42,1.41a1.05,1.05,0,0,1-.2-2.1l15.43-1.41A1.06,1.06,0,0,1,2395.84,1307.24Z"/><path class="cls-8" d="M2385.31,1317a1.06,1.06,0,0,0,1.81-.54l2.55-15.28a1.05,1.05,0,0,0-2.08-.35l-2.55,15.28A1.08,1.08,0,0,0,2385.31,1317Z"/><path class="cls-8" d="M2423,1337.45a1.06,1.06,0,0,1,.27.62,1,1,0,0,1-.94,1.14l-15.43,1.41a1,1,0,0,1-.19-2.09l15.42-1.41A1.05,1.05,0,0,1,2423,1337.45Z"/><path class="cls-8" d="M2412.48,1347.22a1,1,0,0,0,.6.32,1,1,0,0,0,1.21-.86l2.55-15.27a1,1,0,0,0-.87-1.21,1,1,0,0,0-1.2.86l-2.55,15.27A1,1,0,0,0,2412.48,1347.22Z"/><path class="cls-8" d="M2309.16,1200.77c-3.8-.08-8.1-.34-8.37-.36a1.27,1.27,0,0,1-1.19-1.34,1.2,1.2,0,0,1,1.34-1.19c.1,0,9.32.57,12.51.3.83-2.15-.45-14.59-4.13-20-.92-1.36-1.83-2-2.63-1.77a1.24,1.24,0,0,1-1.52-1,1.26,1.26,0,0,1,.95-1.51c1.13-.24,2.83-.15,4.56,1.85,4.29,4.93,6.6,19.43,5.1,23.33a2.12,2.12,0,0,1-1.69,1.52A44.25,44.25,0,0,1,2309.16,1200.77Z"/><path class="cls-8" d="M2515.13,1238.9a.95.95,0,0,1,.09,1.53l-66.54,54.2a1,1,0,0,1-1.34-.12.94.94,0,0,1,.13-1.34L2514,1239A.93.93,0,0,1,2515.13,1238.9Z"/><path class="cls-8" d="M2494.73,1310.84a2.62,2.62,0,0,1,.25.22,1,1,0,0,1-.19,1.34l-28.64,21.45a1,1,0,0,1-1.35-.19,1,1,0,0,1,.19-1.35l28.64-21.44A1,1,0,0,1,2494.73,1310.84Z"/><path class="cls-8" d="M2470.26,1189.11a1,1,0,0,1-.87.41,1,1,0,0,1-1-1.08c.56-11.31-12-15.2-14.77-16l-17.25,17.19c1.08,7.82,14.82,17.33,15,17.42a1,1,0,0,1,.27,1.42l0,0a1,1,0,0,1-1.39.24c-.62-.42-15.26-10.57-15.91-19.42a1.13,1.13,0,0,1,.3-.81l18-17.94a1,1,0,0,1,.94-.26c.17,0,17.61,4,16.91,18.18A1,1,0,0,1,2470.26,1189.11Z"/><path class="cls-8" d="M2515.08,1227.86a1,1,0,0,1-.87.41,1,1,0,0,1-1-1.08c.55-11.31-12-15.2-14.77-16l-17.26,17.19c1.09,7.82,14.83,17.33,15,17.42a1,1,0,0,1,.27,1.42l0,0a1,1,0,0,1-1.39.23c-.62-.42-15.26-10.57-15.91-19.42a1.08,1.08,0,0,1,.29-.81l18-17.94a1,1,0,0,1,1-.25c.16,0,17.61,4,16.91,18.17A1,1,0,0,1,2515.08,1227.86Z"/><path class="cls-8" d="M2529.68,1275.08a1,1,0,0,1-.92.27,1,1,0,0,1-.8-1.2c2.17-11.12-9.66-16.76-12.33-17.9l-19.55,14.54c0,7.89,12.19,19.27,12.19,19.27a1.06,1.06,0,0,1,.2,1.56l0,0a1,1,0,0,1-1.42,0c-.55-.51-13.58-12.65-13-21.5a1.13,1.13,0,0,1,.41-.76l20.4-15.17a1,1,0,0,1,1-.12c.16,0,16.86,6.45,14.13,20.41A1.07,1.07,0,0,1,2529.68,1275.08Z"/><path class="cls-8" d="M2521,1323.3a1,1,0,0,1-.73.32c-.4,0-.6-.37-.46-.8,3-8.65-5.28-11.43-7.16-12l-16.49,13.39c-1,6,6.89,13,7,13.07a.78.78,0,0,1-.12,1.08l0,0a.82.82,0,0,1-1.07.2c-.36-.31-8.74-7.83-7.21-14.58a1.2,1.2,0,0,1,.4-.62l17.2-14a.92.92,0,0,1,.75-.21c.11,0,11.95,2.76,8.22,13.62A1.11,1.11,0,0,1,2521,1323.3Z"/><path class="cls-2" d="M1743.23,522a37.25,37.25,0,0,1-36.89-32.46,37.34,37.34,0,0,1-48.92-3.23,37.35,37.35,0,0,1-4.4-47.22,37.08,37.08,0,0,1,.92-72.48A37.2,37.2,0,0,1,1706.56,315a37.12,37.12,0,0,1,72.85-1.87,37.27,37.27,0,0,1,20.14-5.87,37.17,37.17,0,0,1,30,58.85,37.19,37.19,0,0,1,1,73.7,37.41,37.41,0,0,1-4.82,46.53,36.71,36.71,0,0,1-26.15,10.79,37.25,37.25,0,0,1-19.75-5.64A37.3,37.3,0,0,1,1743.23,522Zm-33.72-43.56a3.43,3.43,0,0,1,1.33.26,3.48,3.48,0,0,1,2.14,3.21v2.89a30.24,30.24,0,0,0,60.48.15,3.48,3.48,0,0,1,2.07-3.15,3.44,3.44,0,0,1,3.72.59,30.33,30.33,0,0,0,20.31,7.77,29.82,29.82,0,0,0,21.24-8.76,30.39,30.39,0,0,0,.4-42.28,3.47,3.47,0,0,1,2.51-5.87H1825a30.25,30.25,0,1,0,0-60.5h-2.89a3.47,3.47,0,0,1-2.45-5.93l1.11-1.11A30.19,30.19,0,0,0,1779.12,322a3.48,3.48,0,0,1-5.81-2.39,30.18,30.18,0,0,0-60.33,1.53v1.23a3.47,3.47,0,0,1-5.92,2.46l-1.94-1.94a30.25,30.25,0,0,0-42.79,42.77l1.15,1.16a3.47,3.47,0,0,1-2.42,5.92,30.16,30.16,0,0,0-1.29,60.28,3.46,3.46,0,0,1,2.29,5.88,30.34,30.34,0,0,0,.27,42.45,30.35,30.35,0,0,0,42.78,0l2-1.95A3.47,3.47,0,0,1,1709.51,478.42Z"/><path class="cls-3" d="M1743.23,447.77A44.8,44.8,0,1,1,1788,403,44.84,44.84,0,0,1,1743.23,447.77Zm0-82.65A37.86,37.86,0,1,0,1781.08,403,37.89,37.89,0,0,0,1743.23,365.12Z"/><path class="cls-3" d="M1709.51,485.36a3.47,3.47,0,0,1-3.16-4.9L1723.76,442a3.47,3.47,0,0,1,6.32,2.86l-17.41,38.44A3.47,3.47,0,0,1,1709.51,485.36Z"/><path class="cls-3" d="M1659.57,440a3.47,3.47,0,0,1-1.35-6.67l44-18.58a3.47,3.47,0,1,1,2.69,6.4l-44,18.58A3.54,3.54,0,0,1,1659.57,440Z"/><path class="cls-3" d="M1706.08,386.19a3.38,3.38,0,0,1-1-.17l-46.21-14.57a3.47,3.47,0,1,1,2.09-6.61l46.2,14.57a3.47,3.47,0,0,1-1,6.78Z"/><path class="cls-3" d="M1725.48,366.42a3.44,3.44,0,0,1-3.23-2.23l-16-41.78a3.47,3.47,0,0,1,6.48-2.48l16,41.78a3.47,3.47,0,0,1-2,4.48A3.41,3.41,0,0,1,1725.48,366.42Z"/><path class="cls-3" d="M1760.7,367.5a3.69,3.69,0,0,1-1.17-.2,3.49,3.49,0,0,1-2.1-4.44l16.54-46a3.47,3.47,0,1,1,6.53,2.34l-16.53,46A3.48,3.48,0,0,1,1760.7,367.5Z"/><path class="cls-3" d="M1780.82,387.26a3.47,3.47,0,0,1-1.15-6.74L1821,366a3.47,3.47,0,0,1,2.3,6.55L1782,387.07A3.61,3.61,0,0,1,1780.82,387.26Z"/><path class="cls-3" d="M1823.71,440.17a3.42,3.42,0,0,1-1.36-.28l-40-17a3.47,3.47,0,0,1,2.71-6.38l40,17a3.47,3.47,0,0,1-1.35,6.66Z"/><path class="cls-3" d="M1776.93,488.42a3.47,3.47,0,0,1-3.29-2.38l-14.44-43.66a3.47,3.47,0,0,1,6.59-2.18l14.44,43.66a3.47,3.47,0,0,1-2.2,4.38A3.29,3.29,0,0,1,1776.93,488.42Z"/></g></g></svg>